<?xml version="1.0" encoding="utf-8"?>
<!-- Generator: Adobe Illustrator 24.3.0, SVG Export Plug-In . SVG Version: 6.00 Build 0)  -->
<svg version="1.1" id="Layer_1" xmlns="http://www.w3.org/2000/svg" xmlns:xlink="http://www.w3.org/1999/xlink" x="0px" y="0px"
	 viewBox="0 0 750 500" style="enable-background:new 0 0 750 500;" xml:space="preserve">
<style type="text/css">
	.st0{opacity:0.5;}
	.st1{fill:#F5F5F5;}
	.st2{fill:#263238;}
	.st3{fill:#E11D48;}
	.st4{opacity:0.6;}
	.st5{fill:#FFFFFF;}
	.st6{opacity:0.3;}
	.st7{fill:#455A64;}
	.st8{fill:#936754;}
	.st9{fill:#FAFAFA;}
	.st10{fill:#7C5142;}
	.st11{fill:#E0E0E0;}
	.st12{opacity:0.8;}
	.st13{opacity:0.4;}
	.st14{opacity:0.2;}
	.st15{fill:none;}
</style>
<g id="freepik--background-simple--inject-4" class="st0">
	<path class="st1" d="M677,168.1c-8-46-33.5-89.4-72.2-115.7s-90.3-33.8-133.5-16.2c-65.2,26.6-102.1,102.4-169.4,123
		c-35.9,11-74.4,4.3-111.9,1.6s-78.8,0.2-106.4,25.6c-25.5,23.4-33.3,62.5-23.6,95.8s20.6,57.6,42.7,84.3
		c29.2,35.3,77.3,43.5,106.3,45.7c81.8,9.2,162.5,12,242,6.6c58.4,2,127.3-21.5,155-47.8c20.3-19.3,38.1-41.2,50.2-66.5
		C676.3,262.2,685,214.1,677,168.1z"/>
</g>
<g id="freepik--Floor--inject-4">
	<path class="st2" d="M705,470.3c0,0.1-147.2,0.3-328.7,0.3s-328.8-0.1-328.8-0.3s147.2-0.3,328.8-0.3S705,470.2,705,470.3z"/>
</g>
<g id="freepik--Character--inject-4">
	<path class="st3" d="M653.1,437l11.2,20l13.4,13.3c0.9,0.9,0.9,2.4,0,3.3c0,0-0.1,0.1-0.1,0.1l0,0c-0.6,0.5-1.3,0.7-2.1,0.5
		c-4.7-1.1-22.1-5.3-22.8-6.8c-0.8-1.8-13.2-20.3-13.2-20.3L653.1,437z"/>
	<g class="st4">
		<path class="st5" d="M677.6,473.7l-25.6-7.6l0.5,0.8c0.4,0.7,1.1,1.3,1.9,1.5c2.1,0.7,8,2.6,21.1,5.8
			C676.3,474.4,677.1,474.2,677.6,473.7L677.6,473.7z"/>
	</g>
	<g class="st4">
		<path class="st5" d="M652.3,457.3c0.7,0.1,1.3,0.7,1.3,1.4c0,0.7-0.7,1.3-1.4,1.3c-0.8-0.1-1.3-0.7-1.3-1.5
			c0.1-0.8,0.8-1.3,1.6-1.2"/>
	</g>
	<path class="st2" d="M668,467.7c0.1-0.9,0.4-1.8,0.8-2.6c0.5-0.7,1.2-1.3,2-1.8c0-0.1-0.3-0.1-0.8,0.1c-0.7,0.3-1.2,0.8-1.6,1.4
		c-0.4,0.6-0.6,1.3-0.6,2C667.8,467.4,668,467.7,668,467.7z"/>
	<path class="st2" d="M671,469.5c0.1,0,0.4-1,1.2-1.9s1.8-1.2,1.8-1.4s-1.2,0-2.2,1S670.9,469.5,671,469.5z"/>
	<path class="st2" d="M663.4,465.9c0.5-1,1.1-2,1.7-3c0.8-0.9,1.6-1.7,2.5-2.4c-1.2,0.3-2.2,1.1-2.9,2.1
		C663.9,463.5,663.4,464.6,663.4,465.9z"/>
	<path class="st2" d="M659.5,460.1c0.1,0.1,0.9-1,2.3-1.9s2.7-1.2,2.7-1.4c-1.1-0.1-2.1,0.3-3,0.9
		C660.6,458.3,659.9,459.1,659.5,460.1z"/>
	<path class="st2" d="M656.1,454.3c0.7-0.8,1.5-1.5,2.4-2c1-0.4,2-0.7,3-0.9c0-0.1-0.3-0.2-1-0.2c-0.8,0-1.6,0.2-2.3,0.6
		c-0.7,0.4-1.3,0.9-1.8,1.6C656.1,453.9,656,454.3,656.1,454.3z"/>
	<path class="st2" d="M657.8,451.2c-0.1-0.3-0.2-0.5-0.4-0.8c-0.5-0.6-1.1-1.2-1.7-1.6c-0.5-0.3-1.1-0.5-1.6-0.5
		c-0.4,0.1-0.7,0.3-0.8,0.7c-0.1,0.4,0,0.8,0.2,1.1c0.9,1.3,2.6,1.8,4.1,1.2c1.4-0.7,2.3-2.1,2.2-3.7c0-0.4-0.2-0.8-0.5-1
		c-0.3-0.2-0.8-0.2-1.1,0.1c-0.4,0.4-0.7,0.9-0.9,1.5c-0.3,0.7-0.4,1.5-0.4,2.3c0,0.3,0,0.6,0.1,0.9c0.1-1,0.3-2.1,0.7-3.1
		c0.2-0.5,0.4-0.9,0.8-1.2c0.2-0.1,0.4-0.1,0.6,0c0.2,0.2,0.3,0.4,0.3,0.7c0,1.4-0.8,2.6-2,3.1c-1.2,0.5-2.7,0.1-3.5-0.9
		c-0.1-0.2-0.2-0.5-0.2-0.8c0-0.2,0.2-0.4,0.4-0.4c0.5,0,1,0.1,1.4,0.4C656.3,449.7,657.1,450.4,657.8,451.2z"/>
	<path class="st3" d="M627.8,443.3l-4.6,16.4c0,0,15.1,10.1,14.6,13.3l-32.1-7.7l6-25.8L627.8,443.3z"/>
	<g class="st4">
		<path class="st5" d="M613.7,455.9c-0.7,0-1.2,0.6-1.3,1.3c0,0.7,0.6,1.2,1.3,1.3c0.7,0,1.3-0.6,1.3-1.4c-0.1-0.7-0.7-1.2-1.5-1.2"
			/>
	</g>
	<g class="st4">
		<path class="st5" d="M605.8,465.3l0.7-2.6L637,471c0,0,1.3,1,0.9,1.9L605.8,465.3z"/>
	</g>
	<path class="st2" d="M623.8,459.7c0,0.2-0.8,0-1.7,0.4s-1.5,0.9-1.6,0.8s0.3-1,1.4-1.3S623.9,459.5,623.8,459.7z"/>
	<path class="st2" d="M626.9,461.9c0,0.2-0.8,0.3-1.4,0.8s-1,1.2-1.2,1.2s0-1,0.8-1.6S626.9,461.7,626.9,461.9z"/>
	<path class="st2" d="M627.8,466.4c-0.2,0-0.2-0.8,0.4-1.6s1.4-0.9,1.5-0.8s-0.5,0.5-1,1.1S628,466.4,627.8,466.4z"/>
	<path class="st2" d="M624.5,455.8c-0.1,0.1-0.8-0.3-1.7-0.4s-1.7,0-1.7-0.2s0.8-0.6,1.8-0.4S624.5,455.7,624.5,455.8z"/>
	<g class="st6">
		<polygon points="626.9,446.6 626.1,449.5 610.4,445.6 611.2,442.2 		"/>
	</g>
	<path class="st2" d="M625.3,452.5c-0.6,0-1.1-0.1-1.6-0.4c-0.6-0.2-1.1-0.5-1.6-0.9c-0.3-0.2-0.6-0.5-0.8-0.7
		c-0.2-0.1-0.3-0.3-0.4-0.5c-0.2-0.3-0.1-0.6,0.1-0.9c0.2-0.2,0.5-0.3,0.8-0.2c0.2,0,0.4,0.1,0.6,0.2c0.3,0.2,0.6,0.4,0.9,0.6
		c0.5,0.4,0.9,0.8,1.2,1.3C625,451.5,625.2,452,625.3,452.5c-0.2,0.1-0.4-0.4-1.1-1.2c-0.4-0.4-0.8-0.8-1.2-1.1
		c-0.3-0.2-0.6-0.4-0.8-0.5c-0.3-0.2-0.6-0.2-0.7-0.1s-0.1,0.1,0,0.2c0.1,0.1,0.2,0.3,0.3,0.4c0.2,0.2,0.5,0.5,0.7,0.7
		c0.4,0.4,0.9,0.7,1.4,1C624.7,452.2,625.3,452.4,625.3,452.5z"/>
	<path class="st2" d="M625,452.7c-0.2-0.5-0.2-1.1,0-1.7c0.1-0.6,0.3-1.2,0.6-1.7c0.2-0.3,0.4-0.6,0.7-0.9c0.3-0.4,0.7-0.6,1.2-0.6
		c0.3,0.1,0.5,0.3,0.6,0.6c0,0.2,0,0.4,0,0.6c0,0.4-0.1,0.7-0.3,1.1c-0.2,0.6-0.6,1.1-1.1,1.5c-0.8,0.7-1.5,0.7-1.5,0.7
		s0.6-0.3,1.2-1c0.4-0.4,0.7-0.9,0.9-1.4c0.1-0.3,0.2-0.6,0.2-0.9c0-0.4,0-0.7-0.2-0.7s-0.5,0.1-0.7,0.4c-0.2,0.2-0.4,0.5-0.6,0.8
		c-0.3,0.5-0.5,1-0.7,1.5C625.1,452,625.1,452.7,625,452.7z"/>
	<path class="st2" d="M633.9,262.9c0,0,10.9,19.1,11.5,40.3s-14.9,152.5-14.9,152.5l-24.5-6c-0.5,4.2,7.7-43.2,10.6-66
		c2.8-22.5-11.4-103.5-11.4-103.5l26.8-17.3"/>
	<path class="st2" d="M577.8,278.9c0,0-2.7,22.7,4,38s60,141.2,60,141.2l21.9-11.1l-53.5-168L577.8,278.9z"/>
	<path class="st7" d="M643.8,384.5c-0.1,0-6.9-20.2-15-45.3s-14.7-45.4-14.5-45.5s6.9,20.2,15,45.3S644,384.4,643.8,384.5z"/>
	<path class="st7" d="M641.9,458.1c-0.1,0.1-10.8-24.8-23.8-55.4s-23.4-55.6-23.3-55.7s10.8,24.8,23.8,55.4S642,458,641.9,458.1z"/>
	<path class="st2" d="M602.7,139.7c-3.2-6.7-13.3-10.5-21.7-8.5c-7,1.7-14.7,8.5-15.4,15.7c-1,10.5,4.5,21.3,0.8,31.2
		c-4.3,11.5-10.2,7.7-9.7,24.4c0.1,5,2.1,17.3,4.5,21.7c1.2,2.3,3.2,4.4,5.8,4.9c3.2,0.6,7.7,1.2,10.3-0.7c7.1-5.3,13.6-6,15.4-14.6
		c2.6-12.6-5.8-28.1-5.5-38.4s-1.2-20.5-2.8-30.7"/>
	<path class="st2" d="M639.5,198.2c-2-4.5-6-7.9-10.1-10.6s-8.5-5.3-12-8.8s-5.9-11.6-6-17.6l0,0c-0.1-1.6-0.2-3.2-0.4-4.8
		c-0.8-5.8-2-11.8-5.2-16.8s-11.6-9.6-19-6.7l-3.7,4.8c4.1,15.7,5.4,32,3.8,48.2c-0.5,4.7-1,9.9,2,13.6c1.9,2.4,5,3.6,8.1,4.2
		c3.4,0.7,7.2,0.6,9.9-1.6c0.2-0.1,0.3-0.2,0.5-0.3c0.6,1.8,1.5,3.4,2.7,4.9c3,3.5,7.6,5.2,12,6.5c5.1,1.4,11.2,2.2,15.2-1.2
		C641.2,208.7,641.6,202.7,639.5,198.2z"/>
	<path class="st3" d="M576.1,185.6c0,0-11.9,5.1-14.7,7.1s11.6,41.9,11.6,41.9s6.8,16.4,5.1,23.8c-1,4.1-2.7,8.6-3.5,12.4
		c-0.8,3.9,1.8,7.8,5.7,8.6c7,1.5,20.5,3.2,32-1.2c6.9-2.5,13.5-6,19.5-10.2c3-2.2,3.9-6.4,1.9-9.7c-0.8-1.4-1.8-2.7-3-3.8
		c-3.9-3.9-7.4-19.1-8.3-23.3c-0.1-0.7-0.2-1.4-0.1-2.1c0.3-4,1.2-18.6-1.2-25.6c-2-5.6-6-12.3-8.3-16c-1.1-1.7-2.9-2.9-4.8-3.3
		l-9.5-1.7c-0.8-0.1-1.7-0.1-2.5,0L576.1,185.6L576.1,185.6z"/>
	<g class="st6">
		<path d="M578.6,256.9l-2.1,7c0,0,14.6-4.9,19.3-10.4s9.3-9.7,11.5-9.9s11.6-0.2,13.2,1.1s7.2,4.9,7.2,4.9l-2.6-7.4l-6.2-4.9
			l-18.6-1.9L578.6,256.9z"/>
	</g>
	<path class="st3" d="M561.3,192.7c0,0-4.7,3.4-4.7,11.9c0,0,0.4,38.9,1.8,46.4c1.8,10,9.8,11.2,14,11.2s26.7-18.3,26.7-18.3
		l-6.9-10.4l-16.5,4.3c0,0-0.7-16-0.7-21.5S561.3,192.7,561.3,192.7z"/>
	<path class="st3" d="M609.1,184.5c0,0,10.5,2.5,14.7,11.6c3.7,8,26.7,43.9,14.8,50.5c-8.6,4.8-19.6-6.2-19.6-6.2L609.1,184.5z"/>
	<path class="st8" d="M625.2,229.6c-0.6-1.6-1-3.4-1-5.2c0.1-1.1-0.1-2.1-0.4-3.2c-0.3-1.1-1.4-1.8-2.5-1.7l-0.4,7.8L625.2,229.6z"
		/>
	<path class="st2" d="M621.7,212l-1.3,27.6l-13.3,1.3l-0.3-27.1c0-0.7,0.5-1.3,1.2-1.4l12-1.9c0.8-0.1,1.5,0.4,1.6,1.2
		C621.7,211.8,621.7,211.9,621.7,212z"/>
	<path class="st7" d="M608,221.3c0-0.3,0.1-0.5,0.1-0.8c0-0.6,0.1-1.3,0.1-2.2s0.1-2.1,0.1-3.3c0-0.1,0-0.3,0-0.4
		c0-0.1,0.1-0.3,0.2-0.4c0.1-0.1,0.2-0.2,0.3-0.2c0.2-0.1,0.3-0.1,0.5-0.1l2.1-0.3c2.8-0.5,5.4-0.9,7.3-1.2l2.2-0.4
		c0.3,0,0.5-0.1,0.8-0.2c-0.3,0-0.5,0-0.8,0.1l-2.2,0.3c-1.9,0.3-4.4,0.7-7.3,1.1l-2.1,0.3c-0.2,0-0.4,0.1-0.5,0.1
		c-0.2,0.1-0.3,0.2-0.4,0.3c-0.1,0.1-0.2,0.3-0.2,0.5c0,0.2,0,0.3,0,0.5c0,1.2,0,2.4,0,3.3s0,1.6,0,2.2C608,220.7,608,221,608,221.3
		z"/>
	<path class="st9" d="M614.1,214.4c0.1-0.4,0.4-0.6,0.8-0.5c0.2,0,0.4,0.2,0.5,0.4c0.1,0.3,0,0.6-0.2,0.7c-0.2,0.2-0.5,0.2-0.8,0
		C614.1,214.9,614,214.6,614.1,214.4z"/>
	<path class="st8" d="M615.7,222.4c0.3,0,7.8,2.5,7.8,2.5l4.2,3.2c1.1,1.7,1.5,3.7,1.2,5.6c-0.5,3.6-2.1,5.1-5.9,6.7h-7.7L611,238
		c-0.9-0.5-1.3-1.5-1.2-2.4v-0.2l-0.5-0.7c-0.3-0.4-0.4-1-0.2-1.5l0,0c0.3-0.7,1.1-0.9,1.8-0.6l4.8,2.5l3-0.1l0.3-1l-4.7-1.6
		l-6.2-3.4c-0.8-0.4-1.1-1.4-0.7-2.2c0,0,0-0.1,0-0.1l0,0c0.4-0.7,1.3-1,2-0.7l5.6,2.2l5.7,1.5l-1.2-2l-7-3.7
		C612.7,224.2,611.8,222,615.7,222.4z"/>
	<path class="st8" d="M614.5,218.8c-1.3-0.3-2.7,0-3.8,0.8c-2.2,1.4-5.1,3.4-5.1,3.4l-4.4,2.1l0.4-1.2c0,0,4.6-0.3,3.9-3.5l-2.7,0.6
		l-2.5-0.8l-3.9,5.2l-1,5.8l-2.5,2.8l5.5,8.4l7.3-2.8l6.6-0.6l2.9-3.2l-0.2-3.4l2.7-3.8c0,0,0.1-1.7-1.4-1.6s-4.5,4.2-4.5,4.2
		l-3.6,0.7c0,0-0.7-0.5-0.2-0.9s10.2-7.3,10.5-8.5s0.7-2.1-0.5-2.2c-1,0-1.9,0.3-2.8,0.7C615.2,220.7,615.3,218.9,614.5,218.8z"/>
	<path class="st10" d="M606.8,226.7c1.5-0.9,3-1.9,4.4-3c1.5-1,2.9-2,4.2-3.2c-1.5,0.9-3,1.9-4.4,3
		C609.5,224.5,608.1,225.6,606.8,226.7z"/>
	<path class="st10" d="M606,235.5c0.2,0.1,0.4,0.1,0.6,0.1c0.4,0,0.9,0.1,1.6,0.1c0.8,0,1.6,0,2.3-0.2c0.9-0.2,1.8-0.6,2.6-1.2
		c1.4-1.1,2.5-2.4,3.3-4c0.3-0.6,0.5-1.1,0.7-1.4c0.1-0.2,0.2-0.3,0.2-0.5c0,0-0.4,0.7-1.1,1.8c-0.8,1.5-1.9,2.8-3.3,3.9
		c-0.8,0.6-1.6,0.9-2.5,1.2c-0.7,0.2-1.5,0.2-2.3,0.3C606.8,235.5,606,235.5,606,235.5z"/>
	<path class="st10" d="M592.7,233.9l0.2-0.2l0.5-0.5l1.9-2.1l0,0l0,0l1.1-5.8l0,0l3.9-5.2h-0.1l2.5,0.9h0l2.7-0.6l-0.1-0.1
		c0.1,0.5,0.1,0.9,0,1.4c-0.2,0.4-0.5,0.8-0.9,1.1c-0.9,0.5-1.8,0.9-2.9,0.9h-0.1v0.1c-0.1,0.4-0.2,0.8-0.4,1.2l-0.1,0.3l0.2-0.1
		l4.4-2.1l0,0c1.3-0.9,2.7-1.8,4.1-2.8c0.7-0.5,1.4-0.9,2.2-1.2c0.8-0.3,1.7-0.4,2.5-0.2l0,0c0.3,0,0.4,0.3,0.5,0.7
		c0.1,0.3,0.1,0.7,0,1.1v0.2l0.2-0.1c0.5-0.2,1-0.4,1.5-0.6c0.5-0.2,1-0.2,1.5,0c0.2,0.1,0.3,0.4,0.3,0.6c0,0.3-0.1,0.6-0.2,0.8
		c0,0.3-0.1,0.5-0.2,0.8c-0.2,0.2-0.4,0.4-0.6,0.6c-1.7,1.5-3.5,3-5.3,4.3l-2.7,2l-1.3,1l-0.3,0.2c-0.1,0.1-0.2,0.2-0.3,0.4
		c0,0.2,0,0.4,0.1,0.5c0.1,0.1,0.2,0.2,0.3,0.3l0,0h0l3.6-0.7h0l0,0c0.9-1.2,1.9-2.3,3-3.3c0.5-0.4,1.2-0.9,1.8-0.8
		c0.3,0,0.6,0.2,0.7,0.5c0.1,0.3,0.2,0.7,0.2,1v-0.1c-1,1.3-1.8,2.6-2.7,3.8l0,0l0,0c0.1,1.2,0.1,2.4,0.2,3.5v-0.1l-2.9,3.2h0.1
		l-6.6,0.7l0,0l-5.4,2.1l-1.4,0.6l-0.4,0.1c-0.1,0-0.1,0-0.1,0.1h0.1l0.4-0.1l1.4-0.5l5.5-2.1l0,0l6.6-0.6l0,0l0,0l2.9-3.2l0,0l0,0
		c0-1.1-0.1-2.3-0.2-3.5v0.1l2.7-3.8l0,0l0,0c0-0.4,0-0.7-0.2-1.1c-0.1-0.2-0.2-0.3-0.4-0.4c-0.2-0.1-0.3-0.2-0.5-0.2
		c-0.4-0.1-0.8,0-1.1,0.2c-0.3,0.2-0.6,0.4-0.9,0.6c-1.1,1-2.1,2.1-3,3.4l0.1-0.1l-3.6,0.7h0.1c-0.2-0.1-0.4-0.4-0.3-0.5
		s0.3-0.3,0.5-0.5l1.3-1l2.7-2c1.9-1.4,3.7-2.8,5.4-4.4c0.2-0.2,0.4-0.4,0.6-0.7c0.1-0.1,0.2-0.3,0.2-0.4l0.1-0.4
		c0.1-0.3,0.1-0.6,0.2-0.9c0-0.2,0-0.3-0.1-0.5c-0.1-0.2-0.2-0.3-0.3-0.4c-0.6-0.2-1.2-0.2-1.8,0c-0.5,0.2-1.1,0.4-1.6,0.6l0.2,0.1
		c0.1-0.4,0.1-0.8,0-1.1c0-0.2-0.1-0.4-0.2-0.5c-0.1-0.2-0.3-0.3-0.5-0.4l0,0c-0.9-0.2-1.8-0.2-2.7,0.2c-0.8,0.3-1.6,0.7-2.3,1.2
		c-1.4,0.9-2.8,1.8-4.1,2.8l0,0l-4.4,2l0.2,0.1c0.1-0.4,0.2-0.9,0.4-1.2l-0.1,0.1c1.1-0.1,2.1-0.4,3-1c0.4-0.3,0.8-0.7,0.9-1.2
		c0.2-0.5,0.2-1,0.1-1.5v-0.1h-0.1l-2.7,0.6h0.1l-2.5-0.8H600v0.1c-1.5,1.9-2.8,3.7-3.9,5.3l0,0l0,0c-0.4,2.3-0.8,4.3-1,5.8l0,0
		c-0.8,0.9-1.4,1.6-1.8,2.1l-0.5,0.6C592.8,233.8,592.7,233.8,592.7,233.9z"/>
	<path class="st8" d="M573.1,151.7c-0.8-8.6,5.5-16.2,14-17c0.2,0,0.4,0,0.6,0c8.4-0.5,15.7,5.6,16.8,14c0.9,7.2,1.7,14.5,1.6,17.1
		c-0.3,7.9-5.1,10.9-7.1,11.8c-0.7,0.2-1.4,0.4-2.1,0.5l0,0c0,0,0,0,0,0.1l1.6,9.2c0.7,6-2.9,11.2-9,11.9s-10.8-4-11.5-10
		L573.1,151.7z"/>
	<path class="st2" d="M602,153.9c0.1,0.7-0.4,1.3-1.1,1.4c-0.7,0.1-1.3-0.3-1.5-1c0,0,0,0,0,0c-0.1-0.7,0.4-1.3,1.1-1.4
		C601.2,152.7,601.9,153.2,602,153.9C602,153.8,602,153.9,602,153.9z"/>
	<path class="st2" d="M602.6,150.9c-0.1,0.2-1.2-0.4-2.6-0.2s-2.3,1-2.5,0.8s0-0.4,0.5-0.8c0.6-0.5,1.3-0.8,2-0.8
		c0.7-0.1,1.4,0.1,2.1,0.4C602.5,150.5,602.7,150.8,602.6,150.9z"/>
	<path class="st2" d="M589.2,155.6c0.1,0.7-0.4,1.3-1.1,1.4c-0.7,0.1-1.3-0.3-1.5-1c0,0,0,0,0,0c-0.1-0.7,0.4-1.3,1.1-1.4
		C588.4,154.4,589,154.9,589.2,155.6C589.1,155.6,589.1,155.6,589.2,155.6z"/>
	<path class="st2" d="M589.1,152.7c-0.1,0.2-1.2-0.4-2.6-0.2s-2.3,1-2.5,0.8s0-0.4,0.4-0.7c0.6-0.5,1.3-0.8,2-0.9
		c0.7-0.1,1.4,0.1,2.1,0.4C589,152.3,589.2,152.6,589.1,152.7z"/>
	<path class="st2" d="M595.3,162.1c0.7-0.3,1.4-0.5,2.2-0.6c0.3-0.1,0.7-0.2,0.7-0.4c0-0.4-0.1-0.7-0.3-1c-0.4-0.8-0.9-1.6-1.4-2.5
		c-1.2-2.1-2.3-4.3-3.2-6.6c0.2-0.1,1.8,2.8,3.7,6.3l1.3,2.5c0.3,0.4,0.4,0.9,0.3,1.3c-0.1,0.3-0.3,0.5-0.5,0.6
		c-0.2,0.1-0.4,0.1-0.6,0.1C596.9,162,596.1,162.1,595.3,162.1z"/>
	<path class="st10" d="M596.8,178.1c0,0-5.2,1-12.4-2.1c0,0,2.9,6.6,12.8,4.6L596.8,178.1z"/>
	<path class="st10" d="M595.1,165.4c-0.6-0.6-1.5-0.8-2.3-0.6c-0.6,0.1-1.1,0.5-1.5,1c-0.3,0.5-0.3,1.2,0.1,1.6
		c0.5,0.4,1.2,0.5,1.8,0.2c0.6-0.3,1.2-0.7,1.6-1.2c0.1-0.1,0.3-0.3,0.3-0.4C595.4,165.8,595.3,165.6,595.1,165.4"/>
	<path class="st2" d="M591.4,163.5c0.2,0,0.4,1.4,1.8,2.3s3,0.6,3,0.8s-0.3,0.3-1,0.4c-0.9,0.1-1.8-0.1-2.5-0.6
		c-0.7-0.5-1.2-1.2-1.4-2C591.2,163.9,591.3,163.5,591.4,163.5z"/>
	<path class="st2" d="M589.5,150.2c-0.1,0.4-1.5,0.4-3.1,0.8s-2.8,1-3.1,0.7s0.1-0.5,0.6-0.9c0.6-0.5,1.4-0.9,2.2-1.1
		c0.8-0.2,1.7-0.2,2.5,0C589.2,149.8,589.5,150.1,589.5,150.2z"/>
	<path class="st2" d="M601.8,148.2c-0.2,0.3-1.2,0.1-2.3,0.2s-2.1,0.4-2.3,0.2s0-0.5,0.4-0.8c1.1-0.9,2.6-1,3.8-0.3
		C601.7,147.7,601.8,148,601.8,148.2z"/>
	<path class="st2" d="M597.9,135.1c-1.2,6.2-5.8,11.2-11.9,12.9c0.2-0.7,0.3-1.5,0.5-2.2c-2.9,5.1-7.5,9-13.1,10.8
		c-3.6-6.7-2-14.9,3.7-19.9c5.7-4.7,14.9-5.8,20.7-1.2"/>
	<path class="st2" d="M579.5,152.8c-1.4,2.6-0.8,5.8,0,8.6s2,5.7,1.7,8.6c-0.3,2.7-1.8,5.2-2.2,7.9c-0.6,4.6,2.3,8.8,3.4,13.3
		c1.4,5.9-0.3,12.1-4.5,16.5c-0.4,0.5-0.9,0.8-1.6,0.9c-0.7-0.1-1.3-0.7-1.4-1.4c-0.1-0.7,0-1.4,0.1-2.1c0.7-6.6-5.6-12-6.3-18.5
		c-0.5-4.3,1.4-8.4,1.8-12.7c0.5-5.4-1.5-10.7-2-16c-0.3-1.8-0.1-3.7,0.5-5.5c0.6-1.8,2-3.2,3.9-3.7c1.9-0.5,3.8,0.5,4.5,2.3"/>
	<path class="st2" d="M577.9,237.3c-0.6,0.1-1.1,0.1-1.7,0.1c-1.4,0.1-2.7,0.5-3.8,1.2c-1.2,0.7-2.2,1.6-3,2.7
		c-0.3,0.5-0.6,1-0.9,1.4c0.1-0.6,0.3-1.2,0.6-1.6c1.5-2.5,4.2-4.1,7.1-4.1C576.7,237,577.3,237,577.9,237.3z"/>
	<path class="st2" d="M575.5,215.8c0.1,0,0.3,4.8,0.4,10.7s0,10.7-0.1,10.7c-0.3-3.5-0.5-7.1-0.4-10.7
		C575.3,220.6,575.4,215.8,575.5,215.8z"/>
	<path class="st2" d="M621,222.9c-0.1,0-0.2-1.3-0.5-3.3c-0.9-5.3-3.1-10.2-6.3-14.5c-1.2-1.6-2.1-2.6-2-2.6
		c0.3,0.2,0.5,0.4,0.7,0.6c0.6,0.6,1.1,1.2,1.7,1.8c1.7,2.1,3.1,4.4,4.2,6.9c1.1,2.5,1.8,5.1,2.2,7.8c0.1,0.8,0.2,1.6,0.2,2.4
		C621.1,222.3,621.1,222.6,621,222.9z"/>
	<path class="st2" d="M556.5,206.8c0,0.1,0,0.2,0,0.3c0,0.2,0,0.6,0,0.9c0,0.9,0,2.1,0.1,3.6c0.1,3.2,0.2,7.7,0.3,13.3
		s0.4,12.3,0.9,19.7c0.1,0.9,0.1,1.9,0.2,2.8l0.1,1.4c0.1,0.5,0.1,0.9,0.2,1.4c0.1,1,0.3,1.9,0.6,2.8c0.3,0.9,0.7,1.8,1.2,2.7
		c1,1.7,2.5,3.2,4.2,4.2c1.8,1,3.8,1.7,5.9,1.8h0.4l0,0c1.5,0.1,3.1-0.2,4.5-0.9c1.4-0.6,2.7-1.4,4-2.2c2.6-1.6,5.1-3.3,7.4-5
		c4.4-3.1,8.5-6.5,12.5-10.1v0.3l-6.9-10.4l0.2,0.1c-4.5,1.1-8.1,2.1-10.6,2.7l-2.8,0.7l-0.7,0.2c-0.1,0-0.2,0-0.3,0l0.2-0.1
		l0.7-0.2l2.8-0.8c2.5-0.7,6-1.7,10.5-2.9h0.1l0.1,0.1l7,10.4l0.1,0.1l-0.1,0.1c-3.9,3.7-8,7.1-12.3,10.3c-2.3,1.7-4.8,3.4-7.4,5
		c-1.3,0.8-2.7,1.6-4.1,2.2c-1.5,0.7-3.1,1-4.8,0.9l0,0h-0.4c-2.2-0.2-4.3-0.8-6.1-1.9c-1.8-1.1-3.3-2.6-4.4-4.4
		c-0.5-0.9-0.9-1.8-1.3-2.8c-0.3-1-0.5-1.9-0.6-2.9c-0.1-0.5-0.1-1-0.2-1.5l-0.1-1.4c-0.1-0.9-0.1-1.9-0.2-2.8
		c-0.5-7.4-0.6-14.1-0.8-19.7s-0.2-10.2-0.2-13.3c0-1.5,0-2.8,0-3.6v-0.9C556.5,207.1,556.5,206.9,556.5,206.8z"/>
	<path class="st2" d="M634.8,247.7c-0.2,0.1-0.5,0.1-0.7,0.1c-0.6,0-1.3,0-1.9-0.1c-1-0.1-1.9-0.3-2.8-0.6c-1.1-0.3-2.2-0.8-3.2-1.3
		c-1.9-1-3.6-2.2-5.2-3.6c-0.7-0.5-1.3-1.2-1.9-1.9c0.7,0.5,1.4,1,2.1,1.6c1.6,1.3,3.4,2.5,5.2,3.5c1,0.5,2.1,1,3.2,1.3
		c0.9,0.3,1.8,0.5,2.7,0.7C633.8,247.6,634.8,247.6,634.8,247.7z"/>
	<path class="st2" d="M637.3,230.4c-1.5-0.8-3.1-1.5-4.8-2c-1.7-0.3-3.4-0.5-5.2-0.5c1.7-0.5,3.6-0.5,5.3,0
		C634.4,228.2,636.1,229.1,637.3,230.4z"/>
	<path class="st2" d="M633,225.9c0,0.2-1.4,0.1-3,0.6s-2.8,1.2-2.9,1.1C628.7,226.1,630.9,225.5,633,225.9z"/>
	<path class="st2" d="M581.5,279.3c0,0-0.5-0.1-1-0.6c-0.7-0.7-1.1-1.6-1.3-2.5c-0.2-0.9-0.1-1.9,0.3-2.8c0.3-0.7,0.6-1,0.7-1
		s-0.2,0.4-0.3,1.1c-0.2,0.8-0.3,1.7-0.1,2.6c0.1,0.9,0.5,1.7,1,2.4C581.2,278.9,581.5,279.2,581.5,279.3z"/>
	<path class="st2" d="M591.6,280.8c0,0.1-0.5-0.1-1.1-0.6c-0.8-0.7-1.4-1.5-1.8-2.5c-0.4-1-0.5-2-0.4-3.1c0.1-0.8,0.3-1.2,0.4-1.2
		s0,0.5,0,1.2c0,1,0.2,1.9,0.5,2.9c0.4,0.9,0.9,1.7,1.6,2.4C591.2,280.4,591.6,280.7,591.6,280.8z"/>
	<path class="st2" d="M600.9,281.4c0,0-0.5-0.1-1-0.6c-1.4-1.3-2.1-3.3-1.7-5.2c0.2-0.7,0.4-1.1,0.5-1.1
		C598.2,277.1,599,279.7,600.9,281.4L600.9,281.4z"/>
	<path class="st2" d="M610.3,278.9c-0.2,0-0.3-1.4-0.8-3s-1.2-2.9-1-2.9c0.8,0.8,1.3,1.7,1.5,2.8
		C610.4,276.8,610.5,277.9,610.3,278.9z"/>
	<path class="st2" d="M620.1,275.3c-0.2-1.3-0.4-2.5-0.7-3.8c-0.5-1.2-1-2.3-1.7-3.4c1.1,0.8,1.8,2,2.2,3.3
		C620.4,272.6,620.5,274,620.1,275.3z"/>
	<path class="st2" d="M627,271.2c-0.2-1.2-0.5-2.4-0.8-3.5c-0.7-1.9-1.7-3.1-1.6-3.2C626.6,266,627.5,268.6,627,271.2z"/>
	<path class="st2" d="M633,267c-0.3-1.2-0.6-2.3-1.1-3.4c-0.6-1-1.3-2-2.1-2.9C632,261.9,633.3,264.4,633,267z"/>
	<g class="st6">
		<path d="M575.7,236.9c-2.9-2-6.8-1.3-8.8,1.6c-0.4,0.5-0.6,1.1-0.7,1.8c0,0.7,0.4,1.3,1,1.5c0.9,0.2,1.9-0.2,2.4-1
			c1.7-1.8,3.9-3.1,6.3-3.6"/>
	</g>
	<g class="st6">
		<path d="M627.4,227.9c2.7-0.4,5.3,0.8,8,1.2c0.5,0.1,1,0,1.4-0.2c0.3-0.2,0.4-0.6,0.4-1c0-0.4-0.2-0.7-0.5-1
			c-0.9-0.8-2.1-1.3-3.3-1.2c-1.2,0-2.5,0.1-3.7,0.4c-1,0.2-1.9,0.8-2.5,1.6"/>
	</g>
	<path class="st5" d="M556.5,215c0.1,0.8,0.5,1.5,1.1,2.1c0.5,0.6,1.4,0.7,2,0.2c0.3-0.3,0.5-0.8,1-1s1.1,0.4,1.7,0.3
		c0.9-0.1,1.1-1.6,2-1.7s1.5,1.1,2.3,0.9s0.7-1.5,1.4-1.9s1.4,0.1,1.9,0.6s1.1,1.1,1.8,0.9c1.2-0.3,1.2-2.4,2.4-2.5
		c0.8-0.1,1.7,0.9,2.4,0.5c0.4-0.2,0.5-0.6,0.8-0.9c0.6-0.5,1.5-0.3,2.2-0.2s1.7,0.2,2.1-0.5c-1.8-0.7-3.8-1.1-5.7-1
		c-0.7,0.1-1.4,0-2-0.3c-0.4-0.3-0.7-0.8-1.2-0.7s-0.7,0.4-1.1,0.6c-0.6,0.2-1.3-0.3-1.6-0.9c-0.2-0.6-0.6-1.2-1.1-1.7
		c-0.9-0.4-2-0.1-2.6,0.7c-0.5,0.8-0.8,1.8-0.8,2.8c-1-0.3-1-2.2-2.1-2.4c-0.7-0.1-1.2,0.6-1.5,1.2s-0.5,1.4-1.2,1.6
		c-0.5-0.8-1-1.6-1.5-2.4c-0.2,1.5-1.5,2.6-3,2.5"/>
	<path class="st5" d="M599.1,201.1c0.3-0.6,0.6-1.1,0.9-1.7c0.8,0.7,2.1,0.7,2.8-0.1c0.1-0.1,0.2-0.3,0.3-0.4
		c0.3-0.7,0.1-1.6,0.6-2.1c0.5-0.4,1.3-0.5,1.8-0.1c0.5,0.4,1,0.9,1.3,1.5c0.2-0.7,0.5-1.4,1-1.9c0.5-0.6,1.3-0.7,2-0.4
		c0.4,0.3,0.7,0.8,1.2,0.7c0.9-0.1,0.6-1.8,1.4-2.1s1.6,0.8,2.3,0.4s0.6-1.3,1.2-1.6c0.9-0.4,1.8,1.2,2.8,0.9
		c0.5-0.1,0.8-0.6,1.2-0.9c0.7-0.4,1.5-0.2,2.1,0.3c0.6,0.5,1,1.2,1.3,1.9c0.3,0.5,0.5,1,0.5,1.6c0,0.6-0.3,1.1-0.8,1.4
		c-1.1,0.3-2.1-1.2-3.2-0.9c-0.8,0.3-1.1,1.5-1.9,1.6s-1.4-1.1-2.3-1.2c-1-0.1-1.5,1.2-2.3,1.9c-1,0.8-2.5,0.7-3.3-0.4
		c-0.1-0.1-0.1-0.2-0.2-0.3l-1.6,1c-0.9-0.6-2.2-0.3-2.8,0.6c-0.1,0.2-0.2,0.4-0.2,0.5c0.1-0.5-0.5-0.9-1-0.8
		c-0.5,0.2-0.9,0.5-1.2,1c-0.3,0.5-0.7,0.8-1.2,1c-0.8,0.2-1.6-0.4-2.4-0.2s-1.3,1.5-2.2,1.3s-0.8-1.2-0.3-1.8
		c0.6-0.4,1.3-0.7,2-0.6"/>
	<path class="st5" d="M596,223.5c0-0.7-0.6-1.4-1.3-1.4c-0.4,0-0.8,0.2-1.1,0.5c-0.3,0.4-0.4,1-0.9,1.1c-0.8,0.3-1.5-0.9-2.3-0.6
		s-0.7,1.4-1.4,1.7c-0.5,0.2-1-0.3-1.3-0.8s-0.6-1.1-1.1-1.2s-1.2,0.6-1.5,1.3s-0.5,1.5-1.2,1.7c-0.9,0.3-1.7-0.7-2.2-1.5
		s-1.3-1.8-2.2-1.5c-0.5,0.2-0.9,0.6-1.1,1.1l-2.7,4.7l0.1,5.2c1.2,0,1.4-1.2,1.5-2.4c0.6,0.9,1.7,1.3,2.7,0.9
		c1-0.4,1.9-0.9,2.6-1.6c0.8-0.7,1.8-1.1,2.8-1.2c0.7,0,1.5,0.3,2.2,0s0.9-1.3,1.4-2c0.7-0.7,1.7-1.2,2.7-1.1c1,0,2-0.1,2.9-0.4
		C595.7,225.5,596.2,224.5,596,223.5z"/>
	<path class="st5" d="M626.8,221.3c0-0.6,0-1.2-0.2-1.8c-0.1-0.6,0.2-1.3,0.8-1.5c0.5,0,1,0.2,1.3,0.6c0.3,0.4,0.7,0.7,1.1,0.9
		c0.4-0.5,0-1.3,0.3-1.9c0.4-0.6,1.1-0.8,1.7-0.4c0.6,0.3,1,0.8,1.3,1.4c0.2-0.7,1.2-0.8,1.7-0.4c0.5,0.5,0.9,1.1,1.1,1.8
		c0.1,0.3,0.1,0.6,0,0.9c-0.1,0.2-0.4,0.4-0.6,0.4c-0.8,0.2-1.7,0.2-2.5-0.1c-0.3-0.2-0.6-0.2-0.9-0.2c-0.6,0.1-0.7,1.1-1.2,1.3
		c-0.4,0.1-0.8-0.1-1.2,0.1s-0.6,0.6-0.9,0.8c-0.4,0.2-0.9,0.1-1.2-0.3c-0.3-0.3-0.5-0.8-0.6-1.2l0.1-0.1"/>
	<path class="st5" d="M626.8,242.3c-0.1,0.5,0.6,0.9,1.1,0.8c0.5-0.2,1-0.3,1.6-0.3c0.4,0.1,0.8,0.3,1.2,0.5c1,0.4,2.2,0.2,3-0.5
		c0,0.5,0.1,1.1,0.3,1.6c0.3,0.5,0.9,0.7,1.4,0.4c0.3-0.2,0.5-0.5,0.6-0.9c0.2-0.3,0.5-0.6,0.8-0.6s0.5,0.4,0.7,0.6
		c0.7,0.9,2.2,0.6,3-0.3c0.6-0.9,1-2.1,1-3.2c0.1-0.5,0.1-1.1-0.3-1.4c-0.4-0.2-0.9-0.1-1.2,0.2c-0.3,0.3-0.4,0.7-0.5,1.1
		c0.3-1.2-0.4-2.4-1.6-2.7c-0.1,0-0.2,0-0.3,0c-1.1,0-2,0.9-2,2c0,0.2,0,0.4,0.1,0.6c-0.1-0.5-0.3-0.9-0.5-1.3
		c-0.3-0.4-0.7-0.7-1.2-0.6c-0.7,0.1-1.1,1-1.3,1.7s-0.5,1.6-1.2,1.8c-0.9,0.2-1.6-0.8-2.5-1.2c-0.7-0.3-1.5-0.3-2.2,0.2
		L626.8,242.3z"/>
	<path class="st5" d="M576.4,264.2c0,0-1.3,4.5-1.3,4.5s1.3-0.8,1.9-0.6s1.1,0.6,1.7,0.5c0.9-0.2,1.1-1.7,2-1.8
		c0.4,0,0.8,0.1,1.1,0.4c0.3,0.3,0.7,0.4,1.1,0.5c0.4,0,0.9-0.4,0.8-0.7c0.3,1.1,1.3,1.8,2.4,1.6c1.1-0.2,2-0.7,2.9-1.3
		c0.9-0.6,1.9-0.9,3-0.8c0.6,0.2,1.3,0.5,1.9,0.8c0.6,0.3,1.4,0.3,1.9-0.2c0.3-0.3,0.4-0.7,0.7-0.9c0.5-0.2,1-0.1,1.4,0.2
		c0.4,0.3,0.8,0.6,1.3,0.7c0.8,0,1.5-0.5,1.8-1.2c0.3-0.7,0.5-1.5,0.8-2.1c0.3-0.7,1-1.2,1.8-1.2c0.4,0.1,0.8,0.3,1.1,0.1
		c0.7-0.3,0.3-1.6,1-2c0.4-0.2,0.8-0.2,1.1,0c1.6,0.5,3.4,0.3,4.9-0.5c-0.6-0.8-1.5-1.4-2.5-1.5c-1-0.1-2,0-3,0.2
		c-0.9,0.1-1.7,0.4-2.5,0.9c-0.3,0.3-0.6,0.6-1,0.6c-0.7,0-1.2-1.1-1.8-1s-0.5,1.2-1,1.6s-1.2-0.1-1.8-0.5s-1.3-0.9-1.8-0.4
		s-0.4,1.5-1,1.5s-0.7-0.9-1.2-1.4c-0.5-0.4-1.3-0.3-1.7,0.3c0,0-0.1,0.1-0.1,0.1c-0.3,0.6-0.4,1.4-0.3,2.1c-0.4-0.8-1-1.5-1.8-2
		c-0.8-0.5-1.9-0.2-2.4,0.6c0,0,0,0,0,0c-0.1,0.2-0.1,0.5-0.3,0.7c-0.3,0.2-0.8,0.1-1-0.2c-0.2-0.3-0.4-0.7-0.6-1
		c-0.5-0.5-1.3-0.7-1.9-0.3c-0.6,0.4-0.8,1.2-0.5,1.8c-1.4-1.6-3.8-1.8-5.4-0.5c-0.7,0.6-1.1,1.3-1.3,2.2L576.4,264.2z"/>
	<path class="st5" d="M560.5,255.9c1.9,0.9,3.7,1.8,4.9,0.1c0.7,1.4,2.4,1.9,3.8,1.2c0.6-0.3,1-0.7,1.3-1.3c0.4-0.9,0.5-2.2,1.3-2.7
		c1-0.6,2.3,0.4,3.5,0.6c1.5,0.3,2.9-0.6,3.9-1.7c0.9-1.1,2-2.1,3.3-2.9c1.2-0.6,2.9-1.1,2.9-2.4s-1.6-1.8-2.7-1.3
		c-1,0.6-2,1.3-2.8,2.2c-1,0.7-2.4,1.1-3.3,0.3c-0.5-0.5-0.8-1.3-1.5-1.3s-1,1-1,1.7s-0.3,1.7-1.1,1.7s-0.9-1.2-1.4-1.8
		c-0.8-0.9-2.4-0.1-2.8,1c-0.2,1.2,0,2.4,0.6,3.4l-3.9-5.1l-1.1,3.8c-0.7-1.1-1.7-2-2.9-2.6c-1.2-0.5-2.7-0.3-3.2,0.9
		C558,250.1,559.3,255.4,560.5,255.9z"/>
	<path class="st5" d="M630.9,254.8c-0.3,0.3,0,0.7,0.1,1.1c0.1,0.4,0.2,0.8,0.1,1.2c-0.1,0.4-0.5,0.8-0.9,0.7
		c-0.2-0.1-0.4-0.2-0.6-0.3c-0.5-0.2-1.1,0.2-1.6,0.4c-1.8,0.6-3.7-1.4-5.4-0.7c-1,0.4-1.7,1.6-2.7,1.4c-0.7-0.2-1.2-1-1-1.7
		c0.2-0.7,0.6-1.3,1.2-1.8c0.6-0.4,1.1-0.9,1.6-1.5c0.3-0.4,0.7-1,1.3-1c0.8,0,1.2,1.2,1.9,1c0.4-0.1,0.5-0.6,0.5-1
		c-0.1-0.4-0.1-0.8,0-1.2c0.4-0.7,1.2-0.9,1.9-0.6c0,0,0.1,0,0.1,0.1c0.7,0.4,1.3,1,1.6,1.7L630.9,254.8z"/>
</g>
<g id="freepik--Device--inject-4">
	<path class="st7" d="M543.3,92.2H115.2c-7.4,0-13.4,6-13.4,13.4v302.4c0,7.4,6,13.4,13.4,13.4h164.3c0,0,10.5,32.3-22,49h153.7
		c0,0-36.6-12.5-27.2-49h159.3c7.4,0,13.4-6,13.4-13.4V105.5C556.6,98.1,550.7,92.2,543.3,92.2z"/>
	<path class="st2" d="M332.8,389.5c5.8,8.3-3.3,17.4-11.6,11.6c-0.3-0.2-0.5-0.4-0.7-0.7c-5.8-8.3,3.3-17.4,11.6-11.6
		C332.3,389,332.6,389.2,332.8,389.5z"/>
	<path class="st11" d="M118.9,97.7h420.7c5.4,0,9.7,4.3,9.7,9.7v0V366l0,0H109.2l0,0V107.4C109.2,102,113.5,97.7,118.9,97.7
		L118.9,97.7z"/>
	<path class="st2" d="M466.7,421.3c0,0.1-60.9,0.3-136.1,0.3s-136.1-0.1-136.1-0.3s60.9-0.2,136.1-0.2S466.7,421.2,466.7,421.3z"/>
	<rect x="157.1" y="106.4" class="st5" width="340.4" height="250.9"/>
	<path class="st2" d="M498,357.8H156.6V105.9H498V357.8z M157.6,356.8H497V106.9H157.6L157.6,356.8z"/>
	<path class="st2" d="M173.2,117.7c0,1.3-1.1,2.4-2.4,2.4s-2.4-1.1-2.4-2.4s1.1-2.4,2.4-2.4l0,0
		C172.1,115.3,173.2,116.4,173.2,117.7z"/>
	<circle class="st2" cx="177.9" cy="117.7" r="2.4"/>
	<circle class="st2" cx="184.7" cy="117.7" r="2.4"/>
	<path class="st3" d="M347.8,134l-18.6-6.8l-18.4,6.8c-2.4,1.1-4.4,1.8-4.4,4.1v11.2c0,7.8,2.1,15.5,6.1,22.2
		c3.9,6.7,9.8,12.1,16.9,15.3c7.5-2.5,13.1-9.2,16.5-14.9c4-6.7,6.1-14.4,6.1-22.2v-10C352.1,136.3,350.4,134.8,347.8,134z"/>
	<g class="st12">
		<path class="st5" d="M347.8,134l-18.6-6.8l-18.4,6.8c-2.4,1.1-4.4,1.8-4.4,4.1v11.2c0,7.8,2.1,15.5,6.1,22.2
			c3.9,6.7,9.8,12.1,16.9,15.3c7.5-2.5,13.1-9.2,16.5-14.9c4-6.7,6.1-14.4,6.1-22.2v-10C352.1,136.3,350.4,134.8,347.8,134z"/>
	</g>
	<path class="st3" d="M343,163.1h-4.1v-22.5c0-5.3-4.3-9.6-9.6-9.6c-5.3,0-9.6,4.3-9.6,9.6v22.5h-4.1v-22.5
		c0-7.6,6.1-13.7,13.7-13.7s13.7,6.1,13.7,13.7V163.1z"/>
	<g class="st13">
		<path d="M343,163.1h-4.1v-22.5c0-5.3-4.3-9.6-9.6-9.6c-5.3,0-9.6,4.3-9.6,9.6v22.5h-4.1v-22.5c0-7.6,6.1-13.7,13.7-13.7
			s13.7,6.1,13.7,13.7V163.1z"/>
	</g>
	<path class="st3" d="M316.6,153.1h25.4c3.2,0,5.8,2.6,5.8,5.8V171c0,3.2-2.6,5.8-5.8,5.8h-25.4c-3.2,0-5.8-2.6-5.8-5.8v-12.1
		C310.8,155.7,313.4,153.1,316.6,153.1z"/>
	<g class="st0">
		<path d="M332.4,161.9c0-1.7-1.4-3.1-3.1-3.1c-1.7,0-3.1,1.4-3.1,3.1c0,1.4,0.9,2.6,2.2,2.9v4.6h1.7v-4.6
			C331.5,164.5,332.4,163.3,332.4,161.9z"/>
	</g>
	<path class="st9" d="M312.8,174.6c-0.1,0-0.2-3.9-0.2-8.8s0.1-8.8,0.2-8.8s0.1,4,0.1,8.8S312.8,174.6,312.8,174.6z"/>
	<path class="st9" d="M326.9,165.8c0,0-0.1-0.1-0.4-0.2c-0.3-0.2-0.6-0.5-0.8-0.8c-1.4-1.9-1.1-4.6,0.8-6.1c0.2-0.2,0.5-0.3,0.7-0.4
		c0.3-0.2,0.7-0.3,1.1-0.4c0.3,0,0.4,0,0.4,0c-0.5,0.2-0.9,0.3-1.4,0.6c-2.1,1.1-2.8,3.7-1.7,5.8c0.1,0.1,0.2,0.3,0.2,0.4
		C326.2,165.1,326.5,165.5,326.9,165.8z"/>
	<circle class="st3" cx="298.8" cy="169.4" r="1.4"/>
	<path class="st3" d="M363,132.1c0,0.8-0.6,1.4-1.4,1.4s-1.4-0.6-1.4-1.4c0-0.8,0.6-1.4,1.4-1.4c0,0,0,0,0,0
		C362.4,130.7,363,131.4,363,132.1z"/>
	<path class="st3" d="M307.2,182.7c0,0.2-0.2,0.4-0.4,0.4c-0.2,0-0.4-0.2-0.4-0.4c0-0.2,0.2-0.4,0.4-0.4
		C307.1,182.4,307.2,182.5,307.2,182.7z"/>
	<path class="st3" d="M307.2,142.5c0,0.2-0.2,0.4-0.4,0.4c-0.2,0-0.4-0.2-0.4-0.4s0.2-0.4,0.4-0.4
		C307.1,142.1,307.2,142.3,307.2,142.5z"/>
	<path class="st3" d="M363.7,161.9c0,0.2-0.2,0.4-0.4,0.4c-0.2,0-0.4-0.2-0.4-0.4s0.2-0.4,0.4-0.4
		C363.5,161.5,363.7,161.7,363.7,161.9L363.7,161.9z"/>
	<path class="st3" d="M368.7,145c0,0.2-0.2,0.4-0.4,0.4c-0.2,0-0.4-0.2-0.4-0.4s0.2-0.4,0.4-0.4l0,0
		C368.6,144.6,368.7,144.8,368.7,145z"/>
	<path d="M242.8,202h-4.9l-1,2.3H235l4.4-9.8h1.8l4.4,9.8h-1.9L242.8,202z M242.2,200.6l-1.9-4.3l-1.8,4.3H242.2z"/>
	<path d="M253.9,196.8v7.5h-1.7v-1c-0.6,0.7-1.5,1.1-2.4,1.1c-1.7,0.1-3.1-1.1-3.2-2.8c0-0.2,0-0.4,0-0.6v-4.3h1.8v4
		c0,1.4,0.6,2,1.8,2c1.1,0,2-0.9,2-2c0-0.1,0-0.2,0-0.3v-3.8L253.9,196.8z"/>
	<path d="M260.7,203.9c-0.5,0.4-1.1,0.5-1.7,0.5c-1.3,0.2-2.4-0.7-2.6-2c0-0.2,0-0.4,0-0.5v-3.6h-1.2v-1.4h1.2v-1.7h1.8v1.7h2v1.4
		h-2v3.6c0,0.7,0.4,1.1,1,1.1c0.4,0,0.7-0.1,1-0.3L260.7,203.9z"/>
	<path d="M269.5,200v4.3h-1.8v-4.1c0-1.3-0.7-2-1.8-2c-1.1-0.1-2,0.8-2.1,1.9c0,0.1,0,0.2,0,0.4v3.8h-1.8v-10.4h1.8v3.8
		c0.7-0.7,1.6-1,2.5-1c1.6-0.1,3,1.1,3.1,2.7C269.5,199.6,269.5,199.8,269.5,200z"/>
	<path d="M278.8,201.1h-5.9c0.2,1.1,1.3,1.9,2.4,1.8c0.7,0,1.5-0.3,2-0.8l0.9,1.1c-1.7,1.6-4.3,1.6-6,0c-0.7-0.7-1.1-1.6-1.2-2.6
		c-0.1-2.1,1.6-3.8,3.6-3.8c0.1,0,0.2,0,0.3,0c2-0.1,3.7,1.5,3.8,3.5c0,0.1,0,0.2,0,0.4C278.8,200.8,278.8,200.9,278.8,201.1z
		 M272.9,200h4.2c-0.1-1.1-1-1.9-2.1-1.8C274,198.1,273,198.9,272.9,200z"/>
	<path d="M287.9,200v4.3h-1.8v-4.1c0-1.3-0.7-2-1.8-2c-1.1-0.1-2,0.8-2.1,1.9c0,0.1,0,0.2,0,0.4v3.8h-1.8v-7.5h1.7v1
		c0.7-0.7,1.6-1.1,2.6-1.1c1.6-0.1,3,1.1,3.1,2.7C287.9,199.6,287.9,199.8,287.9,200z"/>
	<path d="M294.6,203.9c-0.5,0.4-1.1,0.5-1.7,0.5c-1.3,0.2-2.4-0.7-2.6-2c0-0.2,0-0.4,0-0.5v-3.6h-1.2v-1.4h1.2v-1.7h1.8v1.7h2v1.4
		h-2v3.6c0,0.7,0.4,1.1,1,1.1c0.4,0,0.7-0.1,1-0.3L294.6,203.9z"/>
	<path d="M295.8,194.5c0-0.6,0.5-1.1,1.1-1.1c0,0,0,0,0,0c0.5-0.1,1,0.3,1.1,0.9c0,0,0,0.1,0,0.1c0,0.6-0.5,1.1-1.1,1.1
		C296.3,195.6,295.8,195.1,295.8,194.5L295.8,194.5L295.8,194.5z M296.1,196.8h1.8v7.5h-1.8V196.8z"/>
	<path d="M299.5,200.6c0-2.1,1.6-3.8,3.7-3.8c0.1,0,0.2,0,0.3,0c1.3-0.1,2.6,0.6,3.2,1.7l-1.3,0.8c-0.4-0.6-1.1-1-1.9-1
		c-1.3,0.1-2.3,1.2-2.2,2.5c0.1,1.2,1,2.1,2.2,2.2c0.8,0,1.5-0.4,1.9-1l1.3,0.8c-0.6,1.2-1.9,1.8-3.2,1.8c-2.1,0.1-3.9-1.5-4.1-3.5
		C299.5,200.8,299.5,200.7,299.5,200.6z"/>
	<path d="M314.5,199.9v4.4h-1.7v-0.9c-0.6,0.7-1.4,1.1-2.4,1c-1.7,0-2.8-0.9-2.8-2.2s0.8-2.2,3.1-2.2h1.9v-0.1c0-1-0.6-1.6-1.9-1.6
		c-0.8,0-1.6,0.3-2.3,0.7l-0.7-1.3c0.9-0.6,2-1,3.2-0.9C313.3,196.7,314.5,197.8,314.5,199.9z M312.8,202v-0.9H311
		c-1.2,0-1.5,0.4-1.5,1s0.5,1,1.4,1C311.7,203.2,312.5,202.7,312.8,202z"/>
	<path d="M321.3,203.9c-0.5,0.3-1.1,0.5-1.7,0.5c-1.3,0.2-2.4-0.7-2.6-2c0-0.2,0-0.4,0-0.5v-3.6h-1.2v-1.4h1.2v-1.7h1.8v1.7h2v1.4
		h-2v3.6c0,0.7,0.4,1.1,1,1.1c0.4,0,0.7-0.1,1-0.3L321.3,203.9z"/>
	<path d="M329.5,201.1h-5.9c0.2,1.1,1.3,1.9,2.4,1.8c0.8,0,1.5-0.3,2-0.8l0.9,1.1c-1.6,1.6-4.3,1.6-5.9,0c-0.7-0.7-1.1-1.6-1.2-2.6
		c-0.1-2.1,1.6-3.8,3.6-3.8c0.1,0,0.2,0,0.3,0c2-0.1,3.7,1.5,3.8,3.5c0,0.1,0,0.2,0,0.4C329.5,200.7,329.5,201,329.5,201.1z
		 M323.6,200h4.2c-0.1-1.1-1-1.9-2.1-1.8C324.6,198.1,323.7,198.9,323.6,200z"/>
	<path d="M339.5,200.8v3.5h-1.8v-3.4l-3.9-6.4h2l2.9,4.8l2.9-4.8h1.8L339.5,200.8z"/>
	<path d="M342.9,200.6c-0.1-2.2,1.6-4.1,3.8-4.2s4.1,1.6,4.2,3.8c0.1,2.2-1.6,4.1-3.8,4.2c-0.1,0-0.1,0-0.2,0
		c-2.1,0.1-3.9-1.4-4-3.5C342.9,200.8,342.9,200.7,342.9,200.6z M349.1,200.6c-0.1-1.2-1.1-2.2-2.3-2.1c-1.2,0.1-2.2,1.1-2.1,2.3
		c0.1,1.2,1,2.1,2.2,2.1c1.2,0,2.2-0.9,2.2-2.1C349.1,200.7,349.1,200.6,349.1,200.6z"/>
	<path d="M359.8,196.8v7.5h-1.7v-1c-0.6,0.7-1.5,1.1-2.4,1.1c-1.7,0.1-3.1-1.1-3.2-2.7c0-0.2,0-0.4,0-0.6v-4.3h1.8v4
		c0,1.4,0.6,2,1.8,2c1.1,0,2-0.9,2-2c0-0.1,0-0.1,0-0.2v-3.8L359.8,196.8z"/>
	<path d="M366.4,196.7v1.7c-0.1,0-0.3,0-0.4-0.1c-1.1-0.1-2.1,0.7-2.2,1.8c0,0.2,0,0.4,0,0.5v3.6h-1.8v-7.5h1.7v1.1
		C364.4,197.1,365.4,196.6,366.4,196.7z"/>
	<path d="M378.4,202h-4.9l-1,2.3h-1.9l4.4-9.8h1.8l4.4,9.8h-1.9L378.4,202z M377.8,200.6l-1.9-4.3l-1.8,4.3H377.8z"/>
	<path d="M381.7,200.6c0-2.1,1.6-3.8,3.7-3.8c0.1,0,0.2,0,0.3,0c1.3-0.1,2.6,0.6,3.2,1.7l-1.4,0.8c-0.4-0.6-1.1-1-1.9-1
		c-1.3,0.1-2.3,1.2-2.2,2.5c0.1,1.2,1,2.1,2.2,2.2c0.8,0,1.5-0.4,1.9-1l1.4,0.8c-0.6,1.2-1.9,1.8-3.2,1.8c-2.1,0.1-3.9-1.4-4-3.5
		C381.7,200.8,381.7,200.7,381.7,200.6z"/>
	<path d="M389.7,200.6c0-2.1,1.6-3.8,3.7-3.8c0.1,0,0.2,0,0.3,0c1.3-0.1,2.6,0.6,3.2,1.7l-1.4,0.8c-0.4-0.6-1.1-1-1.9-1
		c-1.3,0.1-2.3,1.2-2.2,2.5c0.1,1.2,1,2.1,2.2,2.2c0.8,0,1.5-0.4,1.9-1l1.4,0.8c-0.6,1.2-1.9,1.8-3.2,1.8c-2.1,0.1-3.9-1.4-4-3.5
		C389.7,200.8,389.7,200.7,389.7,200.6z"/>
	<path d="M397.7,200.6c-0.1-2.2,1.6-4.1,3.8-4.2s4.1,1.6,4.2,3.8c0.1,2.2-1.6,4.1-3.8,4.2c-0.1,0-0.1,0-0.2,0
		c-2.1,0.1-3.9-1.5-4-3.5C397.7,200.8,397.7,200.7,397.7,200.6z M404,200.6c-0.1-1.2-1.1-2.2-2.3-2.1c-1.2,0.1-2.2,1.1-2.1,2.3
		c0.1,1.2,1,2.1,2.2,2.1c1.2,0,2.2-0.9,2.3-2.1C404,200.7,404,200.6,404,200.6L404,200.6z"/>
	<path d="M414.7,196.8v7.5H413v-1c-0.6,0.7-1.5,1.1-2.4,1.1c-1.7,0.1-3.1-1.1-3.2-2.7c0-0.2,0-0.4,0-0.6v-4.3h1.8v4
		c0,1.4,0.6,2,1.8,2s2-0.8,2-2.3v-3.8L414.7,196.8z"/>
	<path d="M424.3,200v4.3h-1.8v-4.1c0-1.3-0.7-2-1.8-2c-1.1-0.1-2,0.8-2.1,1.9c0,0.1,0,0.2,0,0.4v3.8H417v-7.5h1.7v1
		c0.7-0.7,1.6-1.1,2.6-1.1c1.6-0.1,3,1.1,3.1,2.7C424.4,199.6,424.4,199.8,424.3,200z"/>
	<path d="M431.1,203.9c-0.5,0.4-1.1,0.5-1.7,0.5c-1.3,0.2-2.4-0.7-2.6-2c0-0.2,0-0.4,0-0.5v-3.6h-1.2v-1.4h1.2v-1.7h1.8v1.7h2v1.4
		h-2v3.6c0,0.7,0.4,1.1,1,1.1c0.4,0,0.7-0.1,1-0.3L431.1,203.9z"/>
	<path class="st2" d="M458.6,218.2c0,0.1-58.8,0.3-131.3,0.3S196,218.4,196,218.2s58.8-0.2,131.3-0.2S458.6,218.1,458.6,218.2z"/>
	<path class="st2" d="M401.5,231.7c-0.1,0-0.3,0-0.4,0H400l-4.3,0.1l-15.9,0.1l-52.5,0.1l-52.5-0.1l-15.9-0.1l-4.3-0.1h-1.1
		c-0.1,0-0.3,0-0.4,0c0.1,0,0.3,0,0.4,0h1.1l4.3-0.1l15.9-0.1l52.5-0.1l52.5,0.1l15.9,0.1l4.3,0.1h1.1
		C401.3,231.8,401.4,231.7,401.5,231.7z"/>
	<path class="st11" d="M247.7,243.6h14.2c3.5,0,6.3,2.8,6.3,6.3v23.6c0,3.5-2.8,6.3-6.3,6.3h-14.2c-3.5,0-6.3-2.8-6.3-6.3v-23.6
		C241.4,246.4,244.2,243.6,247.7,243.6z"/>
	<path class="st11" d="M283.9,243.6h14.2c3.5,0,6.3,2.8,6.3,6.3v23.6c0,3.5-2.8,6.3-6.3,6.3h-14.2c-3.5,0-6.3-2.8-6.3-6.3v-23.6
		C277.6,246.4,280.4,243.6,283.9,243.6z"/>
	<path class="st11" d="M320.2,243.6h14.2c3.5,0,6.3,2.8,6.3,6.3v23.6c0,3.5-2.8,6.3-6.3,6.3h-14.2c-3.5,0-6.3-2.8-6.3-6.3v-23.6
		C313.8,246.4,316.7,243.6,320.2,243.6z"/>
	<path class="st11" d="M356.4,243.6h14.2c3.5,0,6.3,2.8,6.3,6.3v23.6c0,3.5-2.8,6.3-6.3,6.3h-14.2c-3.5,0-6.3-2.8-6.3-6.3v-23.6
		C350.1,246.4,352.9,243.6,356.4,243.6z"/>
	<path class="st11" d="M392.6,243.6h14.2c3.5,0,6.3,2.8,6.3,6.3v23.6c0,3.5-2.8,6.3-6.3,6.3h-14.2c-3.5,0-6.3-2.8-6.3-6.3v-23.6
		C386.3,246.4,389.1,243.6,392.6,243.6z"/>
	<path d="M261,267v1h-10.7v-0.8l6.6-6.6c1.9-1.9,2.2-3,2.2-4.1c0-2-1.4-3.2-4-3.2c-1.7-0.1-3.3,0.6-4.5,1.8l-0.8-0.7
		c1.4-1.5,3.4-2.3,5.4-2.1c3.1,0,5,1.6,5,4.1c0,1.5-0.5,2.8-2.5,4.9L252,267H261z"/>
	<path d="M284.5,260.2c0-4.9,2.5-7.9,6.1-7.9s6.1,3,6.1,7.9s-2.5,7.9-6.1,7.9S284.5,265.1,284.5,260.2z M295.6,260.2
		c0-4.4-2-6.9-5-6.9s-5,2.5-5,6.9c0,4.4,2,6.9,5,6.9S295.6,264.6,295.6,260.2z"/>
	<path d="M333.5,252.4v0.8l-6.7,14.8h-1.2l6.7-14.6h-8.8v3h-1.1v-4L333.5,252.4z"/>
	<path d="M369.7,263.7h-3.3v4.3h-1.1v-4.3h-8.9v-0.8l8.5-10.5h1.3l-8.3,10.3h7.5v-3.8h1.1v3.8h3.3V263.7z"/>
	<path class="st3" d="M408.9,272.4c-2.9,0.3-5.8,0.3-8.8,0.3c-2.9,0.1-5.8,0-8.8-0.3c2.9-0.3,5.8-0.4,8.8-0.3
		C403.1,272,406,272.1,408.9,272.4z"/>
	<path class="st3" d="M291,299.3h71.2c8.9,0,16.1,7.2,16.1,16.1v1c0,8.9-7.2,16.1-16.1,16.1H291c-8.9,0-16.1-7.2-16.1-16.1v-1
		C274.9,306.5,282.1,299.3,291,299.3z"/>
	<path class="st5" d="M307.2,319.2l0.5-1.1c0.7,0.5,1.6,0.8,2.4,0.8c1.1,0,1.6-0.4,1.6-1c0-1.6-4.4-0.5-4.4-3.3c0-1.2,1-2.2,3-2.2
		c0.9,0,1.7,0.2,2.5,0.7l-0.4,1.1c-0.6-0.4-1.3-0.6-2-0.6c-1.1,0-1.6,0.4-1.6,1c0,1.6,4.4,0.5,4.4,3.2c0,1.2-1,2.2-3,2.2
		C309.1,320.1,308.1,319.8,307.2,319.2z"/>
	<path class="st5" d="M319.8,314.3v5.6h-1.2v-0.7c-0.5,0.5-1.1,0.8-1.8,0.8c-1.2,0.1-2.3-0.8-2.4-2c0-0.2,0-0.3,0-0.5v-3.2h1.3v3
		c0,1,0.5,1.5,1.3,1.5c0.8,0,1.5-0.6,1.6-1.4c0-0.1,0-0.2,0-0.3v-2.8L319.8,314.3z"/>
	<path class="st5" d="M327.4,317.1c0.1,1.5-1.1,2.8-2.6,2.9c-0.1,0-0.2,0-0.3,0c-0.7,0-1.4-0.3-1.9-0.8v0.7h-1.2v-7.8h1.3v2.9
		c0.5-0.5,1.1-0.8,1.8-0.8c1.5-0.1,2.8,1.1,2.9,2.6C327.4,316.9,327.4,317,327.4,317.1z M326.1,317.1c0-0.9-0.8-1.6-1.8-1.6
		s-1.6,0.8-1.6,1.8c0,0.9,0.8,1.6,1.7,1.6c0.9,0,1.6-0.7,1.7-1.6C326.1,317.2,326.1,317.2,326.1,317.1L326.1,317.1z"/>
	<path class="st5" d="M338.1,316.7v3.2h-1.3v-3c0-1-0.5-1.5-1.3-1.5s-1.5,0.6-1.5,1.7v2.9h-1.3v-3c0-1-0.5-1.5-1.3-1.5
		s-1.4,0.6-1.4,1.7v2.9h-1.3v-5.6h1.2v0.7c0.5-0.5,1.1-0.8,1.8-0.8c0.8,0,1.5,0.3,1.9,0.9c0.5-0.6,1.3-1,2.1-0.9
		c1.2-0.1,2.2,0.8,2.3,2C338.1,316.4,338.1,316.5,338.1,316.7z"/>
	<path class="st5" d="M339.6,312.6c0-0.4,0.4-0.8,0.8-0.8c0,0,0,0,0,0c0.4,0,0.8,0.3,0.8,0.7c0,0,0,0,0,0c0,0.4-0.4,0.8-0.8,0.8
		c0,0,0,0,0,0C340,313.4,339.6,313.1,339.6,312.6C339.6,312.6,339.6,312.6,339.6,312.6z M339.8,314.3h1.3v5.6h-1.3V314.3z"/>
	<path class="st5" d="M346.2,319.6c-0.4,0.3-0.8,0.4-1.3,0.4c-0.9,0.1-1.8-0.5-1.9-1.5c0-0.1,0-0.3,0-0.4v-2.7h-1v-1h1v-1.3h1.3v1.3
		h1.5v1h-1.5v2.7c-0.1,0.4,0.2,0.8,0.6,0.8c0.1,0,0.1,0,0.2,0c0.3,0,0.5-0.1,0.7-0.2L346.2,319.6z"/>
</g>
<g id="freepik--Plant--inject-4">
	<rect x="56.2" y="407.4" class="st2" width="74.6" height="10.2"/>
	<path class="st2" d="M130.9,417.8H56v-10.5h74.9L130.9,417.8z M56.3,417.5h74.3v-10H56.3L56.3,417.5z"/>
	<polygon class="st2" points="63.1,414.2 73.8,467.2 113.5,467.2 123.9,417.7 	"/>
	<polygon class="st7" points="63.1,462.2 68.8,470.1 117.1,470.1 123.9,462.2 	"/>
	<path class="st2" d="M90.7,415.8c-0.1,0-0.3-24.5-0.4-54.8s0-54.8,0.1-54.8s0.3,24.5,0.4,54.8S90.8,415.8,90.7,415.8z"/>
	<path class="st2" d="M107.3,354.4c0,0.2-0.1,0.4-0.2,0.6l-0.7,1.6l-0.5,1.1c-0.2,0.4-0.3,0.9-0.5,1.4s-0.4,1-0.6,1.6
		s-0.3,1.2-0.6,1.8c-0.9,3-1.6,6.1-2.1,9.1c-0.6,3.8-1,7.6-1.2,11.4c-0.3,7-0.1,13.9,0.6,20.9c0.2,2.7,0.5,4.8,0.7,6.3
		c0.1,0.7,0.1,1.3,0.2,1.7c0,0.2,0,0.4,0,0.6c-0.1-0.2-0.1-0.4-0.1-0.6c-0.1-0.4-0.2-1-0.3-1.7c-0.2-1.5-0.5-3.6-0.8-6.3
		c-0.8-6.9-1-13.9-0.8-20.9c0.2-3.8,0.6-7.7,1.2-11.5c0.5-3.1,1.3-6.2,2.2-9.2c0.2-0.6,0.4-1.2,0.6-1.8s0.4-1.1,0.6-1.6l0.5-1.4
		l0.5-1.1l0.8-1.5C107,354.7,107.1,354.5,107.3,354.4z"/>
	<path class="st2" d="M105.4,334.5c-0.1,0.3-0.1,0.5-0.2,0.8l-0.8,2.3c-0.2,0.5-0.4,1.1-0.6,1.6c-0.2,0.6-0.4,1.3-0.6,2
		c-0.4,1.4-1,3-1.4,4.9L101,349c-0.2,1-0.5,2-0.7,3.1c-0.5,2.1-0.9,4.5-1.4,6.9c-0.8,4.9-1.6,10.3-2,15.9S96.3,386,96.2,391
		s0,9.4,0.2,13.1c0.1,1.9,0.2,3.5,0.3,5s0.2,2.8,0.3,3.8s0.1,1.8,0.2,2.4c0,0.3,0,0.6,0,0.9c-0.1-0.3-0.1-0.6-0.1-0.8
		c-0.1-0.6-0.2-1.4-0.3-2.4s-0.2-2.3-0.4-3.8s-0.3-3.2-0.4-5c-0.2-3.7-0.3-8.2-0.4-13.2s0.2-10.4,0.7-16.1s1.2-11.1,2.1-16
		c0.5-2.4,0.9-4.8,1.4-6.9c0.2-1.1,0.5-2.1,0.7-3.1l0.8-2.8c0.5-1.8,1-3.4,1.5-4.8l0.7-2c0.2-0.6,0.4-1.1,0.6-1.6
		c0.4-0.9,0.7-1.7,0.9-2.2C105.1,335,105.2,334.8,105.4,334.5z"/>
	<path class="st2" d="M85.9,420.1c0-0.1,0-0.2,0-0.3c0-0.2,0-0.5-0.1-0.8c0-0.8-0.1-1.9-0.2-3.2c-0.2-2.9-0.4-6.9-0.8-12
		c-0.6-10.1-1.6-24-3.3-39.4c-0.9-7.7-1.9-14.9-2.9-21.5c-0.6-3.3-1.1-6.4-1.6-9.4s-1.1-5.6-1.6-8.1s-1-4.7-1.5-6.6s-0.8-3.6-1.2-5
		s-0.6-2.4-0.8-3.2c-0.1-0.3-0.1-0.6-0.2-0.8c0-0.1,0-0.2,0-0.3c0,0.1,0.1,0.2,0.1,0.3c0.1,0.2,0.1,0.5,0.2,0.8l0.9,3.1
		c0.4,1.4,0.8,3,1.3,5s1,4.2,1.6,6.6s1.1,5.2,1.7,8.1s1.1,6,1.7,9.4c1.1,6.6,2.1,13.9,3,21.6c1.7,15.4,2.6,29.3,3.1,39.4
		c0.3,5,0.5,9.1,0.6,12c0,1.4,0.1,2.5,0.1,3.2c0,0.4,0,0.6,0,0.9C86,420,86,420.1,85.9,420.1z"/>
	<path class="st3" d="M90,318c-0.3-3.5-3.8-6.1-7.3-6.1s-6.7,2-8.9,4.8c-2,2.9-3.5,6.1-4.3,9.5c-2.3,8.2-3.6,16.8-2.6,25.2
		s4.4,16.8,10.5,22.8c1,1,2.3,1.9,3.6,1.6c0.8-0.2,1.4-0.6,2-1.2c12-11,18.7-26.7,18.3-43c-0.1-3.2-0.5-6.6-2.3-9.2
		S93.1,316.9,90,318"/>
	<path class="st3" d="M64,290.1l-5,8.9c-0.1,0.2-0.3,0.4-0.5,0.5s-0.5-0.2-0.6-0.4c-4.3-6.7-8.7-13.3-13-20l3-1.7L64,290.1z"/>
	<g class="st14">
		<path d="M64,290.1l-5,8.9c-0.1,0.2-0.3,0.4-0.5,0.5s-0.5-0.2-0.6-0.4c-4.3-6.7-8.7-13.3-13-20l3-1.7L64,290.1z"/>
	</g>
	<path class="st3" d="M90.3,306.2L46,280c-0.8-0.2-1.3-1.1-1.1-1.9c0.1-0.4,0.4-0.8,0.8-1c6.2-6.4,14.8-9.8,23.7-9.3
		c8.9,0.6,16.9,5.6,21.4,13.3C95.1,288.8,95.3,298.9,90.3,306.2"/>
	<path class="st2" d="M52.4,271.7c0.2,0,0.4-0.1,0.6-0.1c0.4,0,0.9-0.1,1.7-0.1c2.1,0,4.1,0.1,6.2,0.5c13.8,2.3,25,12.5,28.7,26
		c0.6,2,0.9,4,1.1,6c0.1,0.7,0.1,0.9,0.1,1.3c0,0.4-0.1,0.7-0.3,1c0.1-0.7,0.2-1.5,0.1-2.2c-0.3-2-0.7-4-1.3-6
		c-3.8-13.3-14.8-23.3-28.4-25.7c-2-0.4-4-0.6-6.1-0.6C53.2,271.7,52.4,271.7,52.4,271.7z"/>
	<path class="st2" d="M84.3,288.1c-0.7,0.4-1.5,0.8-2.2,1c-1.4,0.6-3.4,1.3-5.6,2s-4.2,1.3-5.7,1.6c-0.8,0.2-1.6,0.4-2.4,0.5
		c0.7-0.4,1.5-0.6,2.3-0.8l5.7-1.8l5.7-1.8C82.8,288.5,83.5,288.3,84.3,288.1z"/>
	<path class="st2" d="M77.4,269.4c0.6,3.3,0.7,6.6,0.2,9.9c-0.2-1.7-0.3-3.3-0.3-5C77.2,272.6,77.2,271,77.4,269.4z"/>
	<path class="st2" d="M45.6,279.5c1-0.5,2.1-0.9,3.2-1.1c2-0.6,4.8-1.4,8-2.2s6-1.3,8.1-1.7c1.1-0.3,2.2-0.4,3.4-0.5
		c-1.1,0.4-2.2,0.6-3.3,0.8c-2,0.5-4.9,1.1-8,1.9s-5.9,1.5-8,2C47.9,279.1,46.7,279.3,45.6,279.5z"/>
	<path class="st3" d="M71.6,310.4c-3.8-2.9-7.8-3.5-12.6-3.3c-4.8,0.3-9.5,1.5-13.8,3.6c-7.5,3.3-14.5,8.1-19,14.9s-6,15.9-2.7,23.3
		c0.3,0.8,0.8,1.4,1.5,1.8c0.8,0.2,1.7,0.2,2.5-0.2c8.5-2.8,17.1-5.6,24.9-9.9s14.9-10.4,19.1-18.3c1.1-1.9,1.8-3.9,2-6.1
		c0.2-2.2-0.5-4.3-2-5.9"/>
	<path class="st2" d="M71.7,309.5c-0.2,0.1-0.4,0.2-0.6,0.2l-1.8,0.6l-1.3,0.4c-0.5,0.2-1,0.4-1.5,0.6c-1.1,0.4-2.3,0.9-3.6,1.5
		l-2.1,1c-0.7,0.3-1.4,0.7-2.2,1.1c-1.5,0.8-3.1,1.7-4.8,2.7c-3.5,2.2-6.9,4.7-10.1,7.5c-3.1,2.8-6,5.8-8.7,9
		c-1.2,1.5-2.3,3-3.3,4.4c-0.5,0.7-1,1.4-1.4,2l-1.2,2c-0.8,1.2-1.4,2.4-2,3.4c-0.3,0.5-0.5,1-0.8,1.4s-0.4,0.9-0.6,1.2
		c-0.4,0.7-0.6,1.3-0.8,1.7c-0.1,0.2-0.2,0.4-0.3,0.6c0-0.2,0.1-0.4,0.2-0.6c0.2-0.5,0.4-1,0.8-1.7l0.5-1.2c0.2-0.5,0.5-0.9,0.7-1.5
		c0.5-1,1.1-2.2,1.9-3.5l1.2-2c0.4-0.7,0.9-1.4,1.4-2.1c0.9-1.5,2.1-2.9,3.3-4.4c2.7-3.3,5.6-6.3,8.7-9.1c3.2-2.8,6.6-5.3,10.2-7.5
		c1.7-1,3.3-1.9,4.8-2.7c0.8-0.4,1.5-0.8,2.2-1.1l2.1-0.9c1.3-0.6,2.6-1,3.7-1.4c0.5-0.2,1-0.4,1.5-0.5l1.3-0.4l1.8-0.5
		C71.3,309.6,71.5,309.5,71.7,309.5z"/>
	<path class="st2" d="M41.9,325.7c-3,1.2-6.1,2.2-9.3,3c-3.1,1-6.2,1.8-9.4,2.5c3-1.2,6.1-2.2,9.3-3
		C35.6,327.2,38.7,326.3,41.9,325.7z"/>
	<path class="st2" d="M41.5,346.1c-0.2-1-0.2-1.9-0.2-2.9c0-1.8-0.1-4.3,0-7s0.2-5.2,0.4-7c0-1,0.2-1.9,0.4-2.9c0.1,1,0.1,1.9,0,2.9
		c-0.1,2-0.1,4.3-0.2,7s-0.1,5-0.2,7C41.7,344.2,41.7,345.2,41.5,346.1z"/>
	<path class="st2" d="M59.1,337.2c-0.2,0-0.6-5-1-11.2s-0.7-11.2-0.5-11.2s0.6,5,1,11.2S59.2,337.2,59.1,337.2z"/>
	<path class="st2" d="M37.2,314.3c1-0.1,2-0.2,3-0.1c1.8,0,4.4,0.1,7.2,0.1s5.3,0.2,7.2,0.3c1,0,2,0.1,3,0.3c-1,0.1-2,0.2-3,0.1
		c-1.8,0-4.4-0.1-7.2-0.1s-5.3-0.2-7.2-0.3C39.2,314.5,38.2,314.5,37.2,314.3z"/>
	<path class="st2" d="M79.3,375.4c0-0.2-0.1-0.4-0.1-0.6c0-0.5,0-1-0.1-1.7c-0.1-1.5-0.1-3.6,0-6.3s0.2-5.8,0.6-9.3
		s0.8-7.3,1.6-11.3s1.6-7.8,2.5-11.2s1.9-6.4,2.8-8.9s1.7-4.5,2.2-5.9c0.3-0.6,0.5-1.2,0.7-1.6c0.1-0.2,0.2-0.4,0.3-0.5
		c0,0.2-0.1,0.4-0.2,0.6l-0.6,1.6c-0.5,1.4-1.2,3.4-2.1,5.9s-1.8,5.5-2.7,8.9s-1.7,7.1-2.5,11.1s-1.2,7.8-1.6,11.3s-0.6,6.6-0.7,9.3
		s-0.2,4.8-0.2,6.3c0,0.7,0,1.3,0,1.7C79.4,375,79.4,375.2,79.3,375.4z"/>
	<path class="st2" d="M81.7,346.3c-0.5,0.7-1.1,1.4-1.8,1.9c-1.2,1.1-2.8,2.7-4.6,4.3s-3.6,3-4.9,4c-0.7,0.6-1.4,1.1-2.2,1.5
		c0.6-0.7,1.2-1.3,1.9-1.8l4.8-4.1l4.7-4.1C80.3,347.4,80.9,346.8,81.7,346.3z"/>
	<path class="st2" d="M95.7,357.6c-0.7-0.8-1.3-1.7-1.9-2.6l-4.4-6.4l-4.5-6.3c-0.7-0.8-1.3-1.7-1.8-2.7c0.8,0.8,1.5,1.6,2.1,2.5
		c1.2,1.6,2.9,3.8,4.6,6.2s3.2,4.8,4.3,6.5C94.8,355.7,95.3,356.6,95.7,357.6z"/>
	<path class="st2" d="M88.4,322.1c0.1,0.1-4.6,3.3-10.4,7s-10.6,6.7-10.7,6.6s4.6-3.3,10.4-7S88.3,321.9,88.4,322.1z"/>
	<path class="st2" d="M101.5,336.2c-2.5-2-4.8-4.2-7.1-6.5c-2.4-2.2-4.6-4.5-6.7-6.9c2.5,2,4.8,4.2,7.1,6.5
		C97.2,331.5,99.4,333.8,101.5,336.2z"/>
	<path class="st3" d="M104.8,336l4-0.3c2.8-0.2,5.6-1.1,8.1-2.5c1.2-0.7,2.5-1.3,3.8-1.9c5-2,10.5-1.6,15.8-1.9
		c8.7-0.4,17.3-2.6,25.1-6.4c0.5-0.2,0.8-0.6,1.1-1c0.8-1.5-0.7-2.8-2-3.6c-6.7-4.2-13.6-8.4-21.2-10.4s-16.3-1.7-22.9,2.8
		C108.9,315.9,106.1,326.8,104.8,336"/>
	<path class="st2" d="M162.8,321.5c-0.2-0.1-0.5-0.2-0.7-0.3l-1.9-1c-1.6-0.9-4-2.1-7-3.6c-3.5-1.7-7.1-3.1-10.9-4.2
		c-4.6-1.3-9.3-1.7-14.1-1.1c-4.7,0.5-9.2,2.4-12.8,5.5c-2.8,2.6-5.1,5.8-6.7,9.4c-1.4,3-2.3,5.5-2.9,7.3c-0.3,0.8-0.5,1.5-0.7,2
		c-0.1,0.2-0.2,0.5-0.3,0.7c0-0.2,0.1-0.5,0.2-0.7c0.2-0.5,0.4-1.2,0.6-2c0.8-2.5,1.7-5,2.8-7.4c1.5-3.6,3.8-6.9,6.7-9.6
		c3.7-3.2,8.2-5.1,13.1-5.7c4.8-0.6,9.6-0.2,14.3,1.2c3.8,1.1,7.4,2.5,10.9,4.3c3,1.5,5.3,2.8,6.9,3.7l1.9,1.1
		C162.4,321.1,162.6,321.3,162.8,321.5z"/>
	<path class="st2" d="M153.2,326.6c-0.1,0.1-5.3-3.3-11.7-7.6s-11.5-7.9-11.4-8s5.3,3.3,11.7,7.6S153.2,326.5,153.2,326.6z"/>
	<path class="st2" d="M147.6,310.8c-1.2,0.4-2.5,0.7-3.8,0.7c-1.3,0.2-2.6,0.2-3.9-0.1c1.3-0.2,2.6-0.4,3.8-0.4
		C145,310.8,146.3,310.8,147.6,310.8z"/>
	<path class="st2" d="M124.7,307.8c-0.4,1-1,1.9-1.7,2.7c-0.6,0.9-1.3,1.8-2.2,2.5c0.4-1,1-1.9,1.7-2.7
		C123.1,309.3,123.8,308.5,124.7,307.8z"/>
	<path class="st2" d="M129.4,329.7c-0.9-0.4-1.7-0.8-2.5-1.4c-1.5-0.9-3.6-2.3-5.7-3.9s-4.1-3.1-5.5-4.2c-0.8-0.6-1.5-1.2-2.2-1.9
		c0.8,0.4,1.7,1,2.4,1.6l5.6,4c2.2,1.6,4.2,3,5.6,4C127.9,328.5,128.6,329.1,129.4,329.7z"/>
	<path class="st3" d="M110.7,353c-3.8-1-8.4,2.7-9.2,6.6s0.7,7.8,2.4,11.4c3.6,8,9,15.1,15.8,20.7c6.8,5.5,15.4,8.9,24.1,8.9
		c-1.6-7.5,0.4-15.3-0.5-23c-1.6-13.8-12.6-24.7-26.4-26.2C114.5,351.1,111.7,350.8,110.7,353"/>
	<path class="st2" d="M143.9,400.5c-0.2-0.1-0.4-0.1-0.5-0.2c-0.5-0.3-1-0.6-1.4-1c-1.6-1.4-2.9-3.1-3.8-5c-0.6-1.2-1.3-2.5-2-3.9
		s-1.3-3-2.1-4.5c-0.7-1.7-1.6-3.3-2.5-4.9c-1-1.7-2.2-3.2-3.5-4.7c-2.6-3.1-5.4-5.7-7.8-8.3c-2.2-2.2-4.2-4.6-6-7.2
		c-1.2-1.7-2.2-3.6-2.9-5.6c-0.2-0.7-0.4-1.3-0.5-1.6c-0.1-0.2-0.1-0.4-0.1-0.6c0.1,0,0.3,0.8,0.8,2.1c0.8,1.9,1.8,3.7,3,5.5
		c1.8,2.5,3.8,4.9,6,7.1c2.4,2.5,5.3,5.1,7.9,8.3c1.3,1.5,2.5,3.1,3.5,4.8c0.9,1.6,1.8,3.2,2.5,4.9l2,4.5c0.6,1.4,1.3,2.7,1.9,3.9
		c0.8,1.9,2.1,3.6,3.6,5.1C143.1,400.1,143.9,400.4,143.9,400.5z"/>
	<path class="st2" d="M124.1,394.3c0-0.9,0.1-1.7,0.3-2.6c0.3-1.6,0.8-3.7,1.4-6.1s1.4-4.5,1.9-6c0.2-0.8,0.6-1.6,1-2.4
		c-0.2,0.9-0.4,1.7-0.7,2.5c-0.5,1.5-1.1,3.6-1.8,6s-1.2,4.5-1.6,6C124.6,392.6,124.4,393.5,124.1,394.3z"/>
	<path class="st2" d="M143.1,375.9c-0.9-0.1-1.8-0.3-2.7-0.6c-1.6-0.4-3.9-1-6.4-1.6s-4.8-1-6.5-1.3c-0.9-0.1-1.8-0.3-2.7-0.6
		c0.9,0,1.9,0,2.8,0.2c1.7,0.2,4,0.6,6.6,1.2s4.8,1.2,6.4,1.8C141.4,375.1,142.3,375.4,143.1,375.9z"/>
	<path class="st2" d="M109.9,381.2c0-1,0.2-2,0.4-3c0.3-1.8,0.9-4.3,1.6-7.1s1.5-5.2,2.1-6.9c0.3-1,0.6-1.9,1.1-2.8
		c-0.2,1-0.4,2-0.7,2.9c-0.5,1.8-1.2,4.2-1.9,7s-1.3,5.2-1.7,7C110.5,379.3,110.3,380.3,109.9,381.2z"/>
	<path class="st2" d="M134.4,359.8c0,0.1-4.8-0.2-10.7-0.9s-10.6-1.2-10.6-1.4c3.6,0.1,7.1,0.4,10.7,0.9
		C127.3,358.7,130.9,359.2,134.4,359.8z"/>
	<path class="st7" d="M130.9,417.6c0,0.1-16.8,0.3-37.4,0.3S56,417.8,56,417.6s16.8-0.3,37.4-0.3S130.9,417.5,130.9,417.6z"/>
	<path class="st7" d="M119.2,439.2c0,0.1-11.3,0.3-25.2,0.3s-25.2-0.1-25.2-0.3s11.3-0.3,25.2-0.3S119.2,439,119.2,439.2z"/>
	<path class="st7" d="M118.8,442.3c0,0.1-11.1,0.3-24.8,0.3s-24.8-0.1-24.8-0.3S80.3,442,94,442S118.8,442.1,118.8,442.3z"/>
	<path class="st7" d="M119.7,436.6c0,0.1-11.7,0.3-26.1,0.3s-26.1-0.1-26.1-0.3s11.7-0.3,26.1-0.3S119.7,436.5,119.7,436.6z"/>
</g>
<g id="freepik--speech-bubble--inject-4">
	<path class="st5" d="M616.9,159l5.8-12.7c-10.7-14.5-7.7-34.9,6.8-45.6s34.9-7.7,45.6,6.8s7.7,34.9-6.8,45.6
		c-10.9,8.1-25.7,8.5-37.1,1.2l0,0L616.9,159z"/>
	<path class="st2" d="M616.9,159l14.3-4.8l0,0.2l0,0l-0.7-0.7l0.8,0.5c4.8,3.1,10.3,4.8,16,5.1c1.7,0.1,3.4,0,5.1-0.2
		c0.9-0.1,1.8-0.2,2.6-0.4l2.7-0.6c7.9-2.3,14.7-7.5,18.9-14.6c2.3-3.9,3.8-8.3,4.3-12.8c0.5-4.8,0-9.6-1.6-14.2
		c-1.6-4.8-4.4-9.1-8-12.6c-3.7-3.6-8.1-6.3-13-7.8c-4.7-1.4-9.7-1.8-14.5-1c-4.6,0.7-9,2.4-12.9,5c-7,4.7-11.9,11.8-13.7,20
		c-0.7,3.5-0.9,7-0.5,10.6c0.6,5.6,2.7,11,6.1,15.6v0.1v0.1C619.1,154.3,617.2,158.1,616.9,159c0.3-0.9,2-4.7,5.7-12.8v0.1
		c-3.4-4.6-5.6-10-6.2-15.7c-0.4-3.6-0.2-7.2,0.5-10.7c1.8-8.3,6.8-15.6,13.8-20.3c3.9-2.6,8.3-4.4,13-5.1c4.9-0.8,10-0.4,14.8,1
		c5,1.5,9.6,4.2,13.3,7.9c3.7,3.6,6.5,7.9,8.1,12.8c1.6,4.6,2.1,9.6,1.6,14.4c-0.5,4.6-2,9-4.4,13c-4.3,7.2-11.2,12.5-19.2,14.8
		l-2.7,0.6c-0.9,0.1-1.8,0.2-2.7,0.4c-1.7,0.2-3.4,0.3-5.2,0.2c-5.8-0.3-11.3-2.1-16.2-5.3l0.2-0.2l0,0l0.1,0.1l-0.2,0.1L616.9,159z
		"/>
	<path class="st2" d="M659.3,128c3.5-3.3,3.7-8.7,0.4-12.2c-3.3-3.5-8.7-3.7-12.2-0.4c-2.9,2.7-3.6,7.1-1.6,10.6l-1.8,1.6l0.4,2.9
		l-2.7-0.8l-2.2,2.1l0.4,2.9l-2.7-0.8l-1.9,1.8l0.2,1.8L634,137l-1.1,1l-0.2,2.7l4,1l13.1-12.2C653,131,656.7,130.4,659.3,128z
		 M658,117.4c0.9,1,0.9,2.6-0.1,3.5s-2.6,0.9-3.5-0.1c-0.9-1-0.9-2.6,0.1-3.5c0,0,0,0,0,0C655.5,116.3,657.1,116.4,658,117.4z"/>
	<path class="st15" d="M659.3,128c3.5-3.3,3.7-8.7,0.4-12.2c-3.3-3.5-8.7-3.7-12.2-0.4c-2.9,2.7-3.6,7.1-1.6,10.6l-1.8,1.6l0.4,2.9
		l-2.7-0.8l-2.2,2.1l0.4,2.9l-2.7-0.8l-1.9,1.8l0.2,1.8L634,137l-1.1,1l-0.2,2.7l4,1l13.1-12.2C653,131,656.7,130.4,659.3,128z
		 M658,117.4c0.9,1,0.9,2.6-0.1,3.5s-2.6,0.9-3.5-0.1c-0.9-1-0.9-2.6,0.1-3.5c0,0,0,0,0,0C655.5,116.3,657.1,116.4,658,117.4z"/>
	<path class="st2" d="M658,117.4c0,0-0.2-0.2-0.5-0.3c-0.5-0.3-1-0.4-1.6-0.3c-1.3,0.2-2.2,1.3-2,2.6s1.3,2.2,2.6,2
		c1.3-0.2,2.2-1.3,2-2.6c0-0.3-0.1-0.6-0.3-0.8C658.1,117.5,658,117.4,658,117.4c0,0,0,0,0.1,0.1c0.1,0.1,0.2,0.2,0.3,0.4
		c0.3,0.5,0.4,1.1,0.3,1.6c-0.1,0.9-0.7,1.6-1.5,1.9c-1,0.4-2.2,0.2-2.9-0.6c-0.4-0.4-0.6-0.9-0.7-1.5c-0.1-0.5,0-1,0.3-1.5
		c0.4-0.8,1.1-1.3,2-1.4c0.6-0.1,1.1,0.1,1.6,0.4c0.1,0.1,0.2,0.2,0.3,0.3C658,117.3,658,117.4,658,117.4z"/>
	<path class="st2" d="M659.3,128l-0.1,0.1l-0.4,0.3c-0.5,0.4-1.1,0.8-1.7,1.1c-1,0.5-2,0.7-3.1,0.8c-1.4,0.1-2.9-0.1-4.2-0.7h0.1
		l-13,12.2l0,0h0l-4-1h-0.1v-0.1c0-0.9,0.1-1.8,0.2-2.7l0,0l0,0l1.1-1l0,0h0.1l1.7,0.5l-0.1,0.1l-0.3-1.8v-0.1l0,0l1.9-1.8l0,0h0
		l2.7,0.8l-0.1,0.1c-0.1-0.9-0.3-1.9-0.4-2.9v-0.1l0,0l0.6-0.5l1.6-1.5l0,0h0.1l2.7,0.8l-0.1,0.1c-0.1-1-0.3-2-0.4-2.9l0,0l0,0
		l1.8-1.6v0.1c-0.7-1.2-1.1-2.6-1.1-3.9c0-0.7,0-1.3,0.1-2c0.1-0.6,0.3-1.3,0.6-1.9c1.9-4.4,7.1-6.4,11.5-4.5
		c1.9,0.8,3.4,2.3,4.3,4.1c0.7,1.4,1,3,0.8,4.5c-0.1,1.2-0.4,2.3-1,3.3l-0.2,0.3l-0.2,0.3c-0.1,0.2-0.2,0.3-0.3,0.5
		c-0.2,0.3-0.4,0.5-0.6,0.7s-0.3,0.3-0.4,0.4l-0.1,0.1l0.1-0.1l0.4-0.4c0.2-0.2,0.3-0.4,0.6-0.7s0.2-0.3,0.3-0.5l0.2-0.3l0.2-0.3
		c0.5-1,0.8-2.1,0.9-3.3c0.1-1.5-0.2-3.1-0.9-4.5c-2.1-4.2-7.2-6-11.5-3.9c-1.8,0.9-3.2,2.4-4,4.2c-0.3,0.6-0.4,1.2-0.6,1.8
		c-0.1,0.7-0.2,1.3-0.1,2c0.1,1.3,0.4,2.7,1.1,3.8v0.1l0.2-0.3l-1.8,1.6v-0.1c0.1,1,0.3,1.9,0.4,2.9v0.2h-0.2l-2.7-0.8h0.1l-1.6,1.5
		l-0.6,0.5v-0.1c0.1,1,0.3,2,0.4,2.9v0.2h-0.2l-2.6-0.9h0.1l-1.9,1.8v-0.1c0.1,0.6,0.2,1.2,0.3,1.8v0.2l-0.2-0.1l-1.6-0.5h0.1
		l-1.1,1V138c0,0.9-0.1,1.9-0.2,2.7l-0.1-0.1l4,1h-0.1l13.1-12.2l0,0l0,0c1.3,0.6,2.7,0.8,4.2,0.7c1-0.1,2.1-0.3,3-0.8
		c0.6-0.3,1.2-0.6,1.7-1l0.4-0.3L659.3,128z"/>
	<path class="st3" d="M659,127c3.5-3.3,3.7-8.7,0.4-12.2c-3.3-3.5-8.7-3.7-12.2-0.4c-2.9,2.7-3.6,7.1-1.6,10.6l0,0l-1.8,1.6l0.4,2.9
		l-2.7-0.8l-2.2,2l0.4,2.9l-2.7-0.8l-1.9,1.8l0.2,1.8l-1.7-0.5l-1.1,1l-0.2,2.7l4,1l13.1-12.2C652.7,130,656.4,129.4,659,127z
		 M657.7,116.4c0.9,1,0.9,2.6-0.1,3.5s-2.6,0.9-3.5-0.1c-0.9-1-0.9-2.6,0.1-3.5c0,0,0,0,0,0C655.2,115.3,656.8,115.4,657.7,116.4z"
		/>
	<path class="st15" d="M659,127c3.5-3.3,3.7-8.7,0.4-12.2c-3.3-3.5-8.7-3.7-12.2-0.4c-2.9,2.7-3.6,7.1-1.6,10.6l0,0l-1.8,1.6
		l0.4,2.9l-2.7-0.8l-2.2,2l0.4,2.9l-2.7-0.8l-1.9,1.8l0.2,1.8l-1.7-0.5l-1.1,1l-0.2,2.7l4,1l13.1-12.2
		C652.7,130,656.4,129.4,659,127z M657.7,116.4c0.9,1,0.9,2.6-0.1,3.5s-2.6,0.9-3.5-0.1c-0.9-1-0.9-2.6,0.1-3.5c0,0,0,0,0,0
		C655.2,115.3,656.8,115.4,657.7,116.4z"/>
	<path class="st2" d="M657.7,116.4c0,0-0.2-0.2-0.5-0.3c-0.5-0.3-1-0.4-1.6-0.3c-1.3,0.2-2.2,1.3-2.1,2.6c0.2,1.3,1.3,2.2,2.6,2.1
		c0.2,0,0.4-0.1,0.6-0.2c1.2-0.5,1.8-2,1.3-3.2c0-0.1,0-0.1-0.1-0.2C657.9,116.6,657.7,116.4,657.7,116.4c0,0,0,0,0.1,0.1
		c0.1,0.1,0.2,0.2,0.3,0.4c0.3,0.5,0.4,1.1,0.3,1.6c-0.1,0.9-0.7,1.6-1.5,1.9c-1,0.4-2.2,0.2-2.9-0.6c-0.4-0.4-0.6-0.9-0.7-1.5
		c-0.1-0.5,0-1,0.3-1.5c0.4-0.8,1.1-1.3,2-1.4c0.6-0.1,1.1,0.1,1.6,0.4c0.1,0.1,0.2,0.2,0.3,0.3
		C657.7,116.3,657.7,116.4,657.7,116.4z"/>
	<path class="st2" d="M659,127l-0.1,0.1l-0.4,0.3c-0.5,0.4-1.1,0.8-1.7,1.1c-1,0.5-2,0.7-3.1,0.8c-1.4,0.1-2.9-0.1-4.2-0.7h0.1
		l-13,12.2l0,0l0,0l-4-1h-0.1v-0.1c0-0.9,0.1-1.8,0.2-2.7l0,0l0,0l1.1-1l0,0h0.1l1.7,0.5l-0.1,0.1l-0.3-1.8v-0.1l0,0l1.9-1.8l0,0
		l0,0l2.7,0.8l-0.1,0.1c-0.1-0.9-0.3-1.9-0.4-2.9v-0.1l0,0l0.6-0.5l1.6-1.5l0,0h0.1l2.7,0.8l-0.1,0.1c-0.1-1-0.3-2-0.4-2.9l0,0l0,0
		l1.8-1.6v0.1c-0.7-1.2-1.1-2.6-1.1-3.9c0-0.7,0-1.3,0.1-2c0.1-0.6,0.3-1.3,0.6-1.9c1.9-4.4,7-6.4,11.4-4.5c3.4,1.5,5.5,5,5.2,8.7
		c-0.1,1.2-0.4,2.3-1,3.3l-0.2,0.3l-0.2,0.3c-0.1,0.2-0.2,0.3-0.3,0.5c-0.2,0.3-0.4,0.5-0.6,0.7l-0.4,0.4L659,127l0.1-0.2l0.4-0.4
		c0.2-0.2,0.3-0.4,0.6-0.7s0.2-0.3,0.3-0.5l0.2-0.3l0.2-0.3c0.5-1,0.8-2.1,0.9-3.3c0.4-4.7-3.2-8.8-7.9-9.2c-3.6-0.3-7,1.8-8.5,5.1
		c-0.3,0.6-0.4,1.2-0.6,1.8c-0.1,0.7-0.2,1.3-0.1,2c0.1,1.3,0.4,2.7,1.1,3.8v0.1l-0.1,0.1l-1.8,1.6v-0.1c0.1,1,0.3,1.9,0.4,2.9v0.2
		h-0.2l-2.7-0.8h0.1l-1.5,1.4l-0.6,0.5v-0.1c0.1,1,0.3,2,0.4,2.9v0.2h-0.2L637,133h0.1l-1.9,1.8v-0.1c0.1,0.6,0.2,1.2,0.3,1.8v0.2
		h-0.2l-1.7-0.5h0.1l-1.1,1v-0.1c0,0.9-0.1,1.9-0.2,2.7l-0.1-0.1l4,1h-0.1l13.1-12.2l0,0l0,0c1.3,0.6,2.7,0.8,4.2,0.7
		c1-0.1,2.1-0.3,3-0.8c0.6-0.3,1.2-0.6,1.7-1l0.4-0.3L659,127z"/>
	<path class="st2" d="M658.2,126.3c0.4-0.4,0.8-0.9,1.2-1.5c0.4-0.6,0.7-1.3,0.9-2c0.6-2.1,0.3-4.3-0.9-6.1c-0.7-1.1-1.7-2-2.9-2.7
		c-0.6-0.3-1.3-0.6-2-0.7c-0.4-0.1-0.7-0.1-1.1-0.1c-0.4,0-0.8,0-1.1,0c-3.2,0.4-5.9,2.8-6.5,6c-0.1,0.4-0.1,0.8-0.1,1.1
		c0,0.4,0,0.7,0,1.1c0.1,0.7,0.3,1.4,0.5,2.1c0.5,1.2,1.4,2.3,2.4,3.1c0.9,0.7,2,1.2,3.2,1.4c1,0.2,1.9,0.1,2.9-0.1
		c0.7-0.1,1.4-0.4,2-0.8c0.5-0.3,1.1-0.7,1.5-1.1C658.2,126.2,658.2,126.2,658.2,126.3l-0.4,0.2c-0.1,0.1-0.3,0.3-0.5,0.4
		c-0.2,0.2-0.4,0.3-0.7,0.4c-0.6,0.4-1.3,0.6-2.1,0.8c-3.6,0.8-7.3-1.1-8.7-4.5c-0.3-0.7-0.5-1.4-0.6-2.1c0-0.4-0.1-0.8-0.1-1.1
		c0-0.4,0.1-0.8,0.1-1.2c0.3-1.6,1.1-3.1,2.3-4.2c1.2-1.1,2.7-1.8,4.4-2c0.4,0,0.8-0.1,1.2-0.1c0.4,0,0.8,0.1,1.1,0.1
		c0.7,0.1,1.4,0.4,2.1,0.7c2.3,1.2,3.9,3.5,4.1,6.1c0.2,1.7-0.3,3.5-1.2,4.9c-0.1,0.2-0.3,0.4-0.5,0.6c-0.1,0.2-0.2,0.3-0.4,0.4
		l-0.3,0.2C658.2,126.3,658.2,126.3,658.2,126.3z"/>
	<path class="st2" d="M657.8,120.2c0,0,0.2-0.2,0.4-0.6c0.3-0.6,0.5-1.2,0.4-1.8c0-0.4-0.2-0.9-0.4-1.2c-0.3-0.4-0.7-0.8-1.1-1
		c-1.4-0.7-3.1-0.1-3.8,1.3c-0.1,0.2-0.2,0.5-0.2,0.7c-0.2,1.1,0.2,2.1,1.1,2.8c0.3,0.3,0.8,0.4,1.2,0.5c0.6,0.1,1.3,0,1.8-0.3
		C657.5,120.5,657.7,120.3,657.8,120.2c0,0,0,0-0.1,0.1c-0.1,0.1-0.3,0.2-0.4,0.3c-0.6,0.3-1.3,0.5-1.9,0.4c-1-0.2-1.9-0.8-2.3-1.8
		c-0.2-0.5-0.3-1.1-0.2-1.7c0.1-0.6,0.4-1.2,0.9-1.7c0.9-0.9,2.3-1.1,3.4-0.5c0.5,0.3,0.9,0.6,1.2,1.1c0.8,1.1,0.6,2.7-0.4,3.6
		L657.8,120.2z"/>
	<path class="st2" d="M635.5,140.3c0-0.1,2.9-2.9,6.6-6.3s6.7-6.2,6.7-6.1s-2.9,2.8-6.6,6.3S635.5,140.3,635.5,140.3z"/>
	<path class="st3" d="M637.1,123.2l0.1-0.3l0.2,0.2c0.1,0.2,0.3,0.4,0.5,0.4l0.3,0.1l-0.2,0.2c-0.2,0.1-0.4,0.3-0.5,0.5l-0.1,0.3
		l-0.2-0.2c-0.1-0.2-0.3-0.3-0.5-0.4l-0.3-0.1l0.2-0.2C636.8,123.6,637,123.4,637.1,123.2z"/>
	<path class="st3" d="M629.1,121.2l0.1-0.2l0.1,0.1c0.1,0.1,0.2,0.2,0.3,0.3l0.2,0.1l-0.1,0.1c-0.1,0.1-0.2,0.2-0.3,0.3l-0.1,0.2
		l-0.1-0.1c-0.1-0.1-0.2-0.2-0.3-0.3l-0.2-0.1l0.1-0.1C628.9,121.4,629,121.3,629.1,121.2z"/>
	<path class="st3" d="M654.3,134.8l0.1-0.1l0.1,0.1c0.1,0.1,0.2,0.2,0.3,0.3l0.2,0.1l-0.1,0.1c-0.1,0.1-0.2,0.2-0.3,0.3l-0.1,0.2
		l-0.1-0.1c-0.1-0.1-0.2-0.2-0.3-0.2l-0.2-0.1l0.1-0.1C654.1,135,654.2,134.9,654.3,134.8z"/>
	<path class="st3" d="M666.6,127.8l0.1-0.3l0.2,0.2c0.1,0.2,0.3,0.4,0.5,0.5l0.3,0.1l-0.2,0.2c-0.2,0.1-0.4,0.3-0.5,0.5l-0.1,0.3
		l-0.2-0.2c-0.1-0.2-0.3-0.4-0.5-0.4l-0.3-0.1l0.2-0.2C666.4,128.2,666.5,128,666.6,127.8z"/>
	<path class="st3" d="M665,118l0.2-0.4l0.3,0.4c0.2,0.3,0.5,0.6,0.9,0.8l0.4,0.2l-0.4,0.3c-0.3,0.2-0.6,0.5-0.8,0.9l-0.2,0.4
		l-0.3-0.4c-0.2-0.3-0.5-0.6-0.9-0.8l-0.5-0.2l0.4-0.3C664.6,118.7,664.8,118.4,665,118z"/>
	<path class="st3" d="M634.6,115l0.2-0.4l0.3,0.4c0.2,0.3,0.5,0.6,0.9,0.8l0.5,0.2l-0.4,0.3c-0.3,0.2-0.6,0.5-0.8,0.9l-0.2,0.4
		l-0.3-0.4c-0.2-0.3-0.5-0.6-0.9-0.8l-0.4-0.2l0.4-0.3C634.2,115.7,634.4,115.4,634.6,115z"/>
</g>
</svg>
