<?xml version="1.0" encoding="utf-8"?>
<!-- Generator: Adobe Illustrator 24.3.0, SVG Export Plug-In . SVG Version: 6.00 Build 0)  -->
<svg version="1.1" id="Layer_1" xmlns="http://www.w3.org/2000/svg" xmlns:xlink="http://www.w3.org/1999/xlink" x="0px" y="0px"
	 viewBox="0 0 500 500" style="enable-background:new 0 0 500 500;" xml:space="preserve">
<style type="text/css">
	.st0{opacity:0.5;}
	.st1{fill:#F5F5F5;}
	.st2{opacity:0.7;}
	.st3{fill:#E0E0E0;}
	.st4{fill:#E6E6E6;}
	.st5{fill:#E11D48;}
	.st6{opacity:0.5;enable-background:new    ;}
	.st7{fill:#FFFFFF;}
	.st8{fill:#455A64;}
	.st9{fill:#37474F;}
	.st10{fill:#263238;}
	.st11{opacity:0.9;fill:#FFFFFF;enable-background:new    ;}
	.st12{opacity:0.4;enable-background:new    ;}
	.st13{opacity:0.5;fill:#FFFFFF;enable-background:new    ;}
	.st14{fill:#945959;}
	.st15{fill:#703838;}
	.st16{opacity:0.3;enable-background:new    ;}
	.st17{opacity:0.7;enable-background:new    ;}
	.st18{opacity:0.6;enable-background:new    ;}
	.st19{opacity:0.9;}
</style>
<g id="freepik--Floor--inject-63" class="st0">
	<ellipse class="st1" cx="250" cy="377.4" rx="197" ry="111.9"/>
</g>
<g id="freepik--Shadows--inject-63" class="st2">
	<path class="st3" d="M332,447.9L184.9,363c-4.1-2.3-5.5-7.5-3.1-11.6c0.7-1.3,1.8-2.4,3.1-3.1l14.5-9.1c5.1-2.9,11.4-2.9,16.5,0
		L363,424.1c4.1,2.3,5.5,7.5,3.1,11.6c-0.7,1.3-1.8,2.4-3.1,3.1l-14.5,9.1C343.4,450.9,337.1,450.9,332,447.9z"/>
	<ellipse class="st4" cx="108.3" cy="352.2" rx="31.9" ry="18.3"/>
</g>
<g id="freepik--Plants--inject-63">
	<path class="st5" d="M384.2,374.7l14,8c0,0-7.1-22.5-3.3-45.1c1.4-8.6,4.5-12.8,5.6-15.1s9.5-16.4,2-22.9s-24.8,6.5-23.8,41.4
		C379,352.4,380.9,363.8,384.2,374.7z"/>
	<path class="st6" d="M384.2,374.7l14,8c0,0-7.1-22.5-3.3-45.1c1.4-8.6,4.5-12.8,5.6-15.1s9.5-16.4,2-22.9s-24.8,6.5-23.8,41.4
		C379,352.4,380.9,363.8,384.2,374.7z"/>
	<path class="st7" d="M390.7,378.9c-0.2,0-0.4-0.1-0.5-0.3c0-0.1-5.4-14.8-5.2-38.3s12.5-36.3,12.6-36.4c0.2-0.2,0.5-0.2,0.7,0
		c0,0,0,0,0,0c0.2,0.2,0.2,0.5,0,0.7c0,0,0,0,0,0c-0.1,0.1-12.2,12.5-12.4,35.7s5.1,37.8,5.2,37.9c0.1,0.3,0,0.5-0.3,0.6
		C390.8,378.9,390.7,378.9,390.7,378.9z"/>
	<path class="st5" d="M390,378.1l19.1,11c4.1,2.4,9.5,1.3,12.2-2.6c1.3-2,1.8-4.3,1.5-6.6c-0.9-9.9-5.2-12.2,0-16.7s6.7-4.7,6.4-9
		s-3.2-6.1-4.6-7.8s-5.2-5.2-2.6-10.4s6.1-10.2,0.8-12.5c-3.2-1.4-8.6,0.5-12.1,4.3s-6.4,6.6-9.8,7.5s-10.4,1.1-10.1,6.9
		s1.8,7.8,0.5,10.4C388.8,357.4,377.5,360.1,390,378.1z"/>
	<path class="st7" d="M399.5,384.1c-0.3,0-0.5-0.2-0.5-0.5c0-0.3-2.9-34.7,20.7-57.5c0.2-0.2,0.5-0.1,0.7,0.1c0.2,0.2,0.2,0.5,0,0.7
		c-23.3,22.5-20.4,56.4-20.4,56.7C400,383.8,399.8,384,399.5,384.1L399.5,384.1z"/>
	<path class="st7" d="M403.2,354.5c-0.3,0-0.5-0.2-0.5-0.5c-0.4-5.4-3-10.3-7.2-13.7c-0.2-0.2-0.3-0.5-0.1-0.7c0,0,0,0,0,0
		c0.2-0.2,0.5-0.3,0.7-0.1c0,0,0,0,0,0c4.5,3.5,7.2,8.8,7.7,14.5C403.8,354.3,403.6,354.5,403.2,354.5L403.2,354.5z"/>
	<path class="st7" d="M401.6,360.4c-0.1,0-0.2,0-0.3-0.1c-0.2-0.2-0.2-0.5,0-0.7c0.2-0.3,6.1-6.8,20-5.1c0.3,0,0.5,0.3,0.4,0.6
		c0,0.3-0.3,0.5-0.6,0.4c-13.3-1.7-19.1,4.7-19.1,4.7C401.9,360.3,401.8,360.4,401.6,360.4z"/>
</g>
<g id="freepik--Device--inject-63">
	<path class="st8" d="M327.5,437.8l-129.4-74.7c-9.1-5.3-16.5-19.4-16.5-31.6v-277c0-12.2,7.4-17.8,16.5-12.5l129.4,74.7
		c9.1,5.3,16.5,19.4,16.5,31.6v277C344,437.5,336.6,443,327.5,437.8z"/>
	<path class="st9" d="M342.4,108L213.1,33.3c-3.9-2.2-7.5-2.5-10.3-1.1l0,0c-0.3,0.2-0.7,0.4-1,0.6l-14.5,8.4
		c2.9-1.8,6.7-1.6,10.9,0.8l129.4,74.7c9.1,5.3,16.5,19.4,16.5,31.6v277c0,6.4-2.1,11-5.4,13.2l14.3-8.3l0,0c3.6-1.9,6-6.7,6-13.5
		v-277C359,127.4,351.5,113.3,342.4,108z"/>
	<path class="st10" d="M344,148.3v277c0,6.4-2.1,11-5.4,13.2l14.3-8.3l0,0c3.6-1.9,6-6.7,6-13.5v-277L344,148.3L344,148.3z"/>
	<polygon class="st9" points="359,161.1 344,169.7 344,176.4 359,167.8 	"/>
	<path class="st9" d="M352.4,205.8L352.4,205.8c-1.3,0.8-2.4-0.1-2.4-1.8v-14.4c0-1.8,0.9-3.5,2.4-4.6l0,0c1.3-0.8,2.4,0,2.4,1.8
		v14.4C354.8,203,353.9,204.7,352.4,205.8z"/>
	<path class="st8" d="M350,204v-14.5c0-1.8,0.9-3.5,2.4-4.6c0.4-0.3,1-0.4,1.5-0.1l0,0l-1.8-0.9l0,0c-0.5-0.2-1.1-0.2-1.6,0.1
		c-1.5,1.1-2.4,2.8-2.4,4.6V203c-0.1,0.7,0.2,1.5,0.8,1.9l0,0l1.9,1l0,0C350.2,205.5,349.9,204.7,350,204z"/>
	<path class="st9" d="M352.4,240.8L352.4,240.8c-1.3,0.8-2.4,0-2.4-1.8v-14.4c0-1.8,0.9-3.5,2.4-4.6l0,0c1.3-0.8,2.4,0,2.4,1.8v14.4
		C354.8,238,353.9,239.7,352.4,240.8z"/>
	<path class="st8" d="M350,238.9v-14.4c0-1.8,0.9-3.5,2.4-4.6c0.4-0.3,1-0.4,1.5-0.1l0,0l-1.8-0.9l0,0c-0.5-0.3-1.1-0.2-1.6,0.1
		c-1.5,1.1-2.4,2.8-2.4,4.6V238c-0.1,0.7,0.2,1.5,0.8,1.9l0,0l1.9,1l0,0C350.2,240.5,349.9,239.7,350,238.9z"/>
	<path class="st5" d="M323,124.5L195.9,51.1c-1.7-1-3.8-0.4-4.8,1.3c-0.3,0.5-0.5,1.1-0.5,1.7v277.5c0,9.3,6.6,20.6,14.6,25.3
		l124,71.6c1.9,1.1,4.2,0.4,5.3-1.4c0.3-0.6,0.5-1.2,0.5-1.9V145.3C335.1,137.7,329.6,128.3,323,124.5z"/>
	<path class="st11" d="M323,124.5L195.9,51.1c-1.7-1-3.8-0.4-4.8,1.3c-0.3,0.5-0.5,1.1-0.5,1.7v277.5c0,9.3,6.6,20.6,14.6,25.3
		l124,71.6c1.9,1.1,4.2,0.4,5.3-1.4c0.3-0.6,0.5-1.2,0.5-1.9V145.3C335.1,137.7,329.6,128.3,323,124.5z"/>
	<polygon class="st8" points="233.9,70.2 235.9,78.5 278,102.8 285.3,98.9 	"/>
	<path class="st10" d="M246.3,78.2c0,1.4-1,1.9-2.2,1.2c-1.3-0.8-2.1-2.2-2.1-3.7c0-1.4,1-1.9,2.2-1.2
		C245.4,75.3,246.2,76.7,246.3,78.2z"/>
	<path class="st10" d="M274.7,95.8c-0.2,0-0.5-0.1-0.7-0.2l-21.5-12c-0.6-0.4-0.9-1.2-0.5-1.8c0.4-0.6,1.2-0.8,1.8-0.5l21.5,12
		c0.7,0.4,0.9,1.2,0.5,1.8C275.6,95.5,275.2,95.8,274.7,95.8z"/>
	<path class="st5" d="M217.3,108.8c-1.3-0.8-2.3-0.1-2.3,1.6c0,1.7,0.8,3.3,2.3,4.2c0.8,0.5,1.7,0.5,2.5,0l2.1,3.8
		c-1.5,0.8-3.3,0.7-4.8-0.2c-3.4-2.1-5.6-5.8-5.8-9.8c0-3.7,2.5-5,5.9-3c1.9,1.2,3.5,3,4.6,5l-2.1,1.7
		C219.2,110.7,218.4,109.6,217.3,108.8z"/>
	<path class="st5" d="M233.9,121.3c0,3.7-2.5,5-6,3c-3.5-2.1-5.8-5.9-6-10c0-3.7,2.5-5,6-3C231.4,113.4,233.7,117.2,233.9,121.3z
		 M225.6,116.6c0,1.7,0.9,3.4,2.3,4.3c1.2,0.7,2.2,0,2.2-1.7c0-1.7-0.8-3.3-2.2-4.3C226.7,114.2,225.6,114.8,225.6,116.6z"/>
	<path class="st5" d="M237.9,117.4l4.3,9v-6.5l3.3,1.9v12.6l-3-1.7l-4.3-8.9v6.4l-3.3-1.9v-12.6L237.9,117.4z"/>
	<path class="st5" d="M256.2,127.9v3.3l-3.1-1.8v9.3l-3.6-2.1v-9.3l-3.1-1.8v-3.3L256.2,127.9z"/>
	<path class="st5" d="M263.2,142.8l-4.1-2.4l-0.6,1.5l-3.7-2.1l4.6-9.9l3.7,2.1l4.4,15.2l-3.9-2.2L263.2,142.8z M262.3,139.3
		l-1.1-4.3l-1.1,3L262.3,139.3z"/>
	<path class="st5" d="M273.4,141.2c-1.3-0.8-2.3-0.1-2.3,1.6c0,1.7,0.9,3.3,2.3,4.2c0.8,0.5,1.7,0.5,2.5,0l2.1,3.8
		c-1.5,0.8-3.3,0.7-4.8-0.2c-3.5-2.1-5.6-5.8-5.8-9.9c0-3.7,2.5-5,5.9-3c1.9,1.3,3.5,3,4.6,5l-2.1,1.6
		C275.3,143.1,274.4,142,273.4,141.2z"/>
	<path class="st5" d="M287.8,146.2v3.3l-3.1-1.8v9.4l-3.6-2.1v-9.3l-3.1-1.8v-3.3L287.8,146.2z"/>
	<path class="st5" d="M298.5,161.6c0.9,0.5,1.6,0.1,1.6-1.1v-7.3l3.6,2.1v7.3c0,3.4-2,4.4-5.2,2.5c-3.1-1.7-5.1-5-5.3-8.6v-7.3
		l3.6,2.1v7.3C296.8,159.8,297.4,161,298.5,161.6z"/>
	<path class="st5" d="M309.5,161.7c-0.4-0.2-0.7-0.2-0.7,0.1c0,1.6,5.6,3.9,5.6,8.4c0,2.8-2.1,2.8-4.6,1.4c-2.2-1.3-4-3.1-5.5-5.2
		l1.3-2.4c1.1,1.7,2.5,3.2,4.2,4.4c0.5,0.3,0.9,0.3,0.9-0.1c0-1.6-5.7-3.8-5.7-8.2c0-2.5,1.8-3,4.7-1.4c1.8,1.1,3.4,2.5,4.8,4.2
		l-1.3,2.4C312.1,164,310.9,162.7,309.5,161.7z"/>
</g>
<g id="freepik--speech-bubble--inject-63">
	<path class="st5" d="M199.1,170.9c9-11,7.3-27.2-3.7-36.1c-11-9-27.2-7.3-36.1,3.7c-9,11-7.3,27.2,3.7,36.1
		c8.4,6.8,20.1,7.7,29.4,2.1l12.5,5.4L199.1,170.9z"/>
	<path class="st12" d="M199.1,170.9c9-11,7.3-27.2-3.7-36.1c-11-9-27.2-7.3-36.1,3.7c-9,11-7.3,27.2,3.7,36.1
		c8.4,6.8,20.1,7.7,29.4,2.1l12.5,5.4L199.1,170.9z"/>
	<path class="st7" d="M169.6,153.3c0-0.4-0.3-0.6-0.8-0.6c-1.2,0.2-2.3,0.7-3.2,1.5l-1.4-2.8c1.5-1.1,3.3-1.8,5.2-1.8
		c2.4,0,4.2,1.3,4.2,3.1c0,1.3-1,2.6-2.3,3.9l-1.8,1.8h4.2v2.9h-9.1V159l4.1-4.2C169.2,154.4,169.5,153.9,169.6,153.3z"/>
	<path class="st7" d="M181.2,149.8l-2.8,6.6h1.1v-2.2h3.5v2.2h1.3v2.7h-1.3v2.2h-3.5v-2.2h-4.9v-2.5l3-6.9H181.2z"/>
	<path class="st7" d="M195.1,155.6v5.8h-3.7v-4.7c0.1-0.6-0.3-1.1-0.9-1.2c0,0-0.1,0-0.2,0c-0.7,0-1.2,0.6-1.2,1.4v4.5h-3.7v-12.3
		h3.7v4.5c0.6-0.9,1.6-1.5,2.7-1.5c1.8,0,3.2,1.3,3.3,3.1C195.2,155.4,195.2,155.5,195.1,155.6z"/>
</g>
<g id="freepik--Character--inject-63">
	<path class="st5" d="M316.4,248.6v124.2c0,4.4-3.6,8-8,8c-1.4,0-2.8-0.4-4-1.1l-66.9-38.6l-11.9-6.8c-8.3-4.8-13.4-13.7-13.5-23.3
		V186.7c0-4.4,3.6-8,8-8c1.4,0,2.8,0.4,4,1.1l78.8,45.5C311.3,230.1,316.4,239,316.4,248.6z"/>
	<path class="st13" d="M316.4,248.6v124.2c0,4.4-3.6,8-8,8c-1.4,0-2.8-0.4-4-1.1l-66.9-38.6l-11.9-6.8c-8.3-4.8-13.4-13.7-13.5-23.3
		V186.7c0-4.4,3.6-8,8-8c1.4,0,2.8,0.4,4,1.1l78.8,45.5C311.3,230.1,316.4,239,316.4,248.6z"/>
	<path class="st10" d="M277.9,322.1c0,0,12.5,20.8,3.5,44.2l-43.9-25.2L277.9,322.1z"/>
	<ellipse transform="matrix(0.1222 -0.9925 0.9925 0.1222 23.929 481.0565)" class="st10" cx="283.9" cy="227" rx="14" ry="14.1"/>
	<path class="st10" d="M284,187.6c0,0,4.3-7,5.6-6.5s-0.9,7.2-0.9,7.2s6.5,1.4,5.3,3s-9.2,1.2-9.2,1.2L284,187.6z"/>
	<path class="st10" d="M287,205.6c-3,22.5-22,22.5-22,22.5l-39.8-17.5c0,0-3-2.6-3.9-8.7c-0.4-2.5-0.4-5,0-7.5c0,0,0-0.1,0-0.1
		c1.3-9.5,8.4-19.7,23.8-22.8c3.4-0.7,6.8-1,10.3-1c1.7,0,3.3,0.1,5,0.2c12,1.2,20.4,6.8,24.4,15.5c0.9,2,1.6,4,2,6.1
		C287.6,196.9,287.7,201.3,287,205.6z"/>
	<path class="st5" d="M191.4,249.2c0,0-14.1-0.5-19.6,13.3c0,0,6,4,13.9,0S191.4,249.2,191.4,249.2z"/>
	<path class="st6" d="M191.4,249.2c0,0-14.1-0.5-19.6,13.3c0,0,6,4,13.9,0S191.4,249.2,191.4,249.2z"/>
	<path class="st14" d="M191.1,255.9c0,0-4-17.4-6.1-17.6s-2.5,5.3-2.4,8.4l-5-10.8c-0.6-1.4-2.3-1.9-3.6-1.3c-0.1,0-0.1,0-0.2,0.1
		c-5,2.8-13.8,11.1,4.7,31.8L191.1,255.9z"/>
	<path class="st5" d="M242.2,243.8l-3-0.4c-6.2-0.8-12.3,1.8-16,6.7l-17.9,23.8l-14-24.7c0,0-1.7,16.8-19.6,13.3l19.2,32.3
		c4.2,7,13.2,9.3,20.3,5.2c1.5-0.9,2.8-2,3.9-3.4l16.4-20.2L242.2,243.8z"/>
	<path class="st5" d="M280.4,299.3c-4,10.1-4.4,12.1-2,17.2c1.7,3.7,3,7.6,4,11.6c0,0-18.5,20.8-44.9,13l-11.9-6.8
		c-2.5-1.4-4.7-3.2-6.6-5.4l3.6-26.9c0.2-1.4,0-2.9-0.4-4.2l-3.8-11.1c-3.8-11.1-0.8-23.3,7.5-31.5l12.7-12.4l33.5,4.3l5,1.4
		c6.8,2,11.1,8.6,10.1,15.6C285.5,275.8,282.9,292.9,280.4,299.3z"/>
	<path class="st6" d="M280.4,299.3c-4,10.1-4.4,12.1-2,17.2c1.7,3.7,3,7.6,4,11.6c0,0-18.5,20.8-44.9,13l-11.9-6.8
		c-2.5-1.4-4.7-3.2-6.6-5.4l3.6-26.9c0.2-1.4,0-2.9-0.4-4.2l-3.8-11.1c-3.8-11.1-0.8-23.3,7.5-31.5l12.7-12.4l33.5,4.3l5,1.4
		c6.8,2,11.1,8.6,10.1,15.6C285.5,275.8,282.9,292.9,280.4,299.3z"/>
	<path class="st5" d="M260.2,269l-6.7-5.7c-1.4-1.2-3.4-1.6-5.2-1l-8.1,2.8l-1.1-4.5c-0.7-2.9-3.6-4.7-6.5-4c-0.1,0-0.2,0-0.2,0.1
		l-3.5,1l5.9-11.4c1.9-3.7,4.9-6.8,8.6-8.8l2.3-1.3l19.2,1c0,0,7.2,3,7.2,9.8L260.2,269"/>
	<polygon class="st14" points="265,245.7 245.7,260.8 245.7,212.9 265,212.9 	"/>
	<polygon class="st14" points="246,241.8 240.1,265.1 264.9,245.7 	"/>
	<path class="st15" d="M245.7,238.3c8.7-3.2,15.6-9.9,19.3-18.4v-7.1h-19.3L245.7,238.3z"/>
	<path class="st14" d="M249.9,177.4c-7.3,0-22.9,4.1-24.7,23.2s-0.1,34,9.8,35.4s32.8-5.7,35.9-30.5S257,177.4,249.9,177.4z"/>
	<polygon class="st15" points="238.4,208.7 238.4,220 231.7,218 	"/>
	<circle class="st10" cx="245.7" cy="210.7" r="2.3"/>
	<path class="st10" d="M232.9,209.1c0,1.3-1,2.3-2.3,2.3c-1.3,0-2.3-1-2.3-2.3c0-1.3,1-2.3,2.3-2.3
		C231.8,206.8,232.9,207.8,232.9,209.1C232.9,209.1,232.9,209.1,232.9,209.1z"/>
	<path class="st10" d="M227.8,204.3l4.5-2.7c0,0-1.7-1.8-3.4-0.7S227.8,204.3,227.8,204.3z"/>
	<path class="st15" d="M235.2,224.6c2.2,0.2,4.4-0.4,6.2-1.7c0,0,0.4,3.3-2.3,3.9S235.2,224.6,235.2,224.6z"/>
	<path class="st10" d="M231.3,183.9c0,0,2.8,26.4,38.7,27.3c0,0,10.9-26.3-10.6-34.8S231.3,183.9,231.3,183.9z"/>
	<path class="st5" d="M280.6,207.2L280.6,207.2L280.6,207.2L280.6,207.2l-4.4-2.6l0,0c-1.7-1-4-0.9-6.6,0.6
		c-5.1,2.9-9.2,10.1-9.2,16c0,2.9,1,5,2.7,6l0,0l4.3,2.5l0.2,0.1l0.1,0.1l0,0c1.6,0.8,3.8,0.6,6.2-0.8c5.1-3,9.2-10.1,9.2-16
		C283.3,210.2,282.3,208.2,280.6,207.2z"/>
	<ellipse transform="matrix(0.5 -0.866 0.866 0.5 -52.2094 346.5948)" class="st5" cx="274.1" cy="218.5" rx="13.1" ry="7.5"/>
	<ellipse transform="matrix(0.5 -0.866 0.866 0.5 -52.2094 346.5948)" class="st6" cx="274.1" cy="218.5" rx="13.1" ry="7.5"/>
	<path class="st5" d="M282.4,212.8L282.4,212.8l-3-1.8l0,0c-1.1-0.7-2.7-0.6-4.5,0.4c-3.7,2.4-6.1,6.5-6.3,10.9c0,2,0.7,3.4,1.9,4.1
		l0,0l3,1.7c0.1,0,0.1,0.1,0.2,0.1l0.1,0.1l0,0c1.4,0.5,3,0.3,4.3-0.5c3.7-2.4,6.1-6.5,6.3-10.9
		C284.2,214.8,283.5,213.4,282.4,212.8z"/>
	<path class="st5" d="M284.2,216.9c-0.2,4.4-2.6,8.5-6.3,10.9c-3.5,2-6.3,0.4-6.3-3.6c0.2-4.4,2.6-8.5,6.3-10.9
		C281.4,211.2,284.2,212.8,284.2,216.9z"/>
	<path class="st16" d="M284.2,216.9c-0.2,4.4-2.6,8.5-6.3,10.9c-3.5,2-6.3,0.4-6.3-3.6c0.2-4.4,2.6-8.5,6.3-10.9
		C281.4,211.2,284.2,212.8,284.2,216.9z"/>
	<path class="st5" d="M266.9,172.2c-2.9-2.2-6.4-3.4-10-3.5H256c-3.7,0-7.3,0.3-10.9,1c0.7,0,1.3,0,2,0h-2v1.9h1.9
		c13.3,0.5,23.9,11.4,23.9,24.7v7.9c0,1.2,1,2.2,2.2,2.2c0.1,0,0.2,0,0.2,0h0.2l2-0.6l0,0c-0.1,0-0.3,0.1-0.4,0.1
		c1.2-0.2,2.1-1.2,2.1-2.5v-7.3C277.2,182.9,271.5,175.8,266.9,172.2z"/>
	<path class="st5" d="M254.3,235.5c-0.8,0-1.6-0.2-2.4-0.5l-6.2-2.9c-0.4-0.1-0.6-0.6-0.5-1s0.6-0.6,1-0.5c0,0,0.1,0,0.1,0.1
		l6.2,2.9c1.6,0.8,3.6,0.4,4.8-0.9l6-6.2c0.3-0.3,0.8-0.3,1.1,0c0.3,0.3,0.3,0.8,0,1.1l-6,6.2C257.3,234.9,255.8,235.5,254.3,235.5z
		"/>
	<path class="st6" d="M254.3,235.5c-0.8,0-1.6-0.2-2.4-0.5l-6.2-2.9c-0.4-0.1-0.6-0.6-0.5-1s0.6-0.6,1-0.5c0,0,0.1,0,0.1,0.1
		l6.2,2.9c1.6,0.8,3.6,0.4,4.8-0.9l6-6.2c0.3-0.3,0.8-0.3,1.1,0c0.3,0.3,0.3,0.8,0,1.1l-6,6.2C257.3,234.9,255.8,235.5,254.3,235.5z
		"/>
	<path class="st5" d="M247.3,230c0,1.6-1.3,2.9-2.9,2.9s-2.9-1.3-2.9-2.9s1.3-2.9,2.9-2.9l0,0C246,227.1,247.3,228.4,247.3,230z"/>
	<path class="st6" d="M247.3,230c0,1.6-1.3,2.9-2.9,2.9s-2.9-1.3-2.9-2.9s1.3-2.9,2.9-2.9l0,0C246,227.1,247.3,228.4,247.3,230z"/>
	<path class="st5" d="M277.2,196.1v7.3c0,1.2-0.9,2.3-2.1,2.5c-1.3,0.1-2.5-0.8-2.6-2.1c0-0.1,0-0.2,0-0.3v-7.4
		c0-14.5-11.7-26.3-26.2-26.3c-0.4,0-0.7,0-1.1,0c3.6-0.7,7.3-1,10.9-1h0.9c3.6,0,7.1,1.3,10,3.5
		C271.5,175.8,277.2,182.9,277.2,196.1z"/>
	<path class="st6" d="M277.2,196.1v7.3c0,1.2-0.9,2.3-2.1,2.5c-1.3,0.1-2.5-0.8-2.6-2.1c0-0.1,0-0.2,0-0.3v-7.4
		c0-14.5-11.7-26.3-26.2-26.3c-0.4,0-0.7,0-1.1,0c3.6-0.7,7.3-1,10.9-1h0.9c3.6,0,7.1,1.3,10,3.5
		C271.5,175.8,277.2,182.9,277.2,196.1z"/>
	<path class="st5" d="M265.9,333.7c0,0-4.8,13.3,12.5,19.3c0,0,5.6-8.3,0-15.1S265.9,333.7,265.9,333.7z"/>
	<path class="st17" d="M265.9,333.7c0,0-4.8,13.3,12.5,19.3c0,0,5.6-8.3,0-15.1S265.9,333.7,265.9,333.7z"/>
	<path class="st14" d="M272,334.3c0,0-16.9,6.2-16.8,8.6s7.2,0.8,7.2,0.8l-2.6,1.7c-2.7,1.8-4.8,4.4-6.1,7.4l0,0
		c-0.5,1.4,0,3,1.3,3.6l6.4,3.4c1.5,0.8,3.4,0.2,4.2-1.3c0,0,0-0.1,0-0.1l0,0c0.7-1.4,2-2.5,3.5-3c3.5-1.2,10-4.5,12.6-13.6
		L272,334.3z"/>
	<path class="st5" d="M277.1,248.4c0,0-9,5-4.2,20.2s13.8,38.7,13.8,38.7l-20.7,26.4c4.5,0.5,8.5,3,11.1,6.6c2.5,3.8,3,8.5,1.4,12.7
		l25.7-33c4.8-6.2,6.2-14.4,3.6-21.8l-11-32.1c-2.7-8-9-14.2-17-16.8L277.1,248.4z"/>
</g>
<g id="freepik--Icons--inject-63">
	<path class="st5" d="M125.2,158.7l-39.8-23c-0.9-0.6-2.1-0.8-3.2-0.4l0,0c-0.1,0.1-0.2,0.1-0.3,0.2l-8.7,5.1h0.1
		c-1.1,0.6-1.8,2.1-1.8,4.1V189c0,3.7,2.3,8.1,5.1,9.7l39.8,23c1,0.7,2.4,0.8,3.5,0.1c0,0-0.1,0-0.1,0.1l8.6-5l0,0
		c1.1-0.6,1.8-2.1,1.8-4.1v-44.3C130.2,164.7,128,160.4,125.2,158.7z"/>
	<path class="st5" d="M128.8,162.9c-0.8-1.7-2.1-3.2-3.7-4.2l-39.8-23c-0.9-0.6-2.1-0.8-3.2-0.4l0,0c-0.1,0.1-0.2,0.1-0.3,0.2
		l-8.7,5.1c1.1-0.6,2.4-0.5,3.4,0.2l39.8,23c1.6,1.1,2.9,2.6,3.8,4.4l0,0L128.8,162.9z"/>
	<path class="st5" d="M121.5,217.8c0,2-0.6,3.4-1.7,4l8.6-5l0,0c1.1-0.6,1.8-2.1,1.8-4.1v-44.2c0-1.9-0.5-3.8-1.4-5.5l-8.7,5.3l0,0
		c0.8,1.7,1.3,3.5,1.3,5.3V217.8z"/>
	<path class="st16" d="M128.8,162.9c-0.8-1.7-2.1-3.2-3.7-4.2l-39.8-23c-0.9-0.6-2.1-0.8-3.2-0.4l0,0c-0.1,0.1-0.2,0.1-0.3,0.2
		l-8.7,5.1c1.1-0.6,2.4-0.5,3.4,0.2l39.8,23c1.6,1.1,2.9,2.6,3.8,4.4l0,0L128.8,162.9z"/>
	<path class="st18" d="M121.5,217.8c0,2-0.6,3.4-1.7,4l8.6-5l0,0c1.1-0.6,1.8-2.1,1.8-4.1v-44.2c0-1.9-0.5-3.8-1.4-5.5l-8.7,5.3l0,0
		c0.8,1.7,1.3,3.5,1.3,5.3V217.8z"/>
	<path class="st5" d="M109.8,186.3c0,5.7-2.3,7.7-5.7,5.7c-1.9-1.1-3.3-2.9-3.8-5c-1,1.2-2.6,1.3-4.7,0.1c-3.6-2.1-6.4-7-6.4-11.8
		s2.8-6.4,6.4-4.4c1.8,1.1,3.3,2.7,4.3,4.6v-1.9l3.8,2.2v10.4c-0.1,1.1,0.4,2.2,1.3,2.8c1.3,0.7,2.1-0.5,2.1-4.2
		c0-6.5-4.2-13.4-10.3-16.9s-10.3-1.1-10.3,5.6c0.2,7.2,4,13.8,10.2,17.5c1.7,1,3.5,1.6,5.5,1.7l0.9,3.4c-2.3-0.2-4.4-0.9-6.4-2.1
		c-8-4.6-13.3-13.9-13.3-22.4s5.3-11.5,13.4-6.8C104.5,169.3,109.8,178.2,109.8,186.3z M99.9,181.5c0-2.6-1.3-5-3.5-6.4
		c-2-1.2-3.4-0.4-3.4,2.4c-0.1,2.6,1.2,5,3.4,6.4C98.4,185,99.9,184.3,99.9,181.5z"/>
	<g class="st19">
		<path class="st7" d="M109.8,186.3c0,5.7-2.3,7.7-5.7,5.7c-1.9-1.1-3.3-2.9-3.8-5c-1,1.2-2.6,1.3-4.7,0.1c-3.6-2.1-6.4-7-6.4-11.8
			s2.8-6.4,6.4-4.4c1.8,1.1,3.3,2.7,4.3,4.6v-1.9l3.8,2.2v10.4c-0.1,1.1,0.4,2.2,1.3,2.8c1.3,0.7,2.1-0.5,2.1-4.2
			c0-6.5-4.2-13.4-10.3-16.9s-10.3-1.1-10.3,5.6c0.2,7.2,4,13.8,10.2,17.5c1.7,1,3.5,1.6,5.5,1.7l0.9,3.4c-2.3-0.2-4.4-0.9-6.4-2.1
			c-8-4.6-13.3-13.9-13.3-22.4s5.3-11.5,13.4-6.8C104.5,169.3,109.8,178.2,109.8,186.3z M99.9,181.5c0-2.6-1.3-5-3.5-6.4
			c-2-1.2-3.4-0.4-3.4,2.4c-0.1,2.6,1.2,5,3.4,6.4C98.4,185,99.9,184.3,99.9,181.5z"/>
	</g>
	<path class="st5" d="M125.2,237.5l-39.8-23c-0.9-0.6-2.1-0.8-3.2-0.3l0,0c-0.1,0.1-0.2,0.1-0.3,0.2l-8.7,5.1h0.1
		c-1.1,0.6-1.8,2.1-1.8,4.1v44.2c0,3.8,2.3,8.1,5.1,9.7l39.8,23c1,0.8,2.4,0.8,3.5,0.1l-0.1,0.1l8.6-5l0,0c1.1-0.6,1.8-2,1.8-4.1
		v-44.3C130.2,243.5,128,239.1,125.2,237.5z"/>
	<path class="st5" d="M128.8,241.7c-0.8-1.7-2.1-3.2-3.7-4.2l-39.8-23c-0.9-0.6-2.1-0.8-3.2-0.3l0,0c-0.1,0.1-0.2,0.1-0.3,0.2
		l-8.7,5.1c1.1-0.6,2.4-0.5,3.4,0.2l39.8,23c1.6,1.1,2.9,2.6,3.8,4.4l0,0L128.8,241.7z"/>
	<path class="st5" d="M121.5,296.6c0,2-0.6,3.4-1.7,4l8.6-5l0,0c1.1-0.6,1.8-2,1.8-4.1v-44.2c0-1.9-0.5-3.8-1.4-5.5l-8.7,5.3l0,0
		c0.8,1.7,1.3,3.5,1.3,5.3V296.6z"/>
	<path class="st16" d="M128.8,241.7c-0.8-1.7-2.1-3.2-3.7-4.2l-39.8-23c-0.9-0.6-2.1-0.8-3.2-0.3l0,0c-0.1,0.1-0.2,0.1-0.3,0.2
		l-8.7,5.1c1.1-0.6,2.4-0.5,3.4,0.2l39.8,23c1.6,1.1,2.9,2.6,3.8,4.4l0,0L128.8,241.7z"/>
	<path class="st18" d="M121.5,296.6c0,2-0.6,3.4-1.7,4l8.6-5l0,0c1.1-0.6,1.8-2,1.8-4.1v-44.2c0-1.9-0.5-3.8-1.4-5.5l-8.7,5.3l0,0
		c0.8,1.7,1.3,3.5,1.3,5.3V296.6z"/>
	<polygon class="st5" points="92.1,257.3 82.5,241.7 82.5,262.8 	"/>
	<polygon class="st5" points="101,261.8 110.5,278.4 110.5,257.3 	"/>
	<path class="st5" d="M83.9,241l9.8,16c0,0,0.1,0.1,0.1,0.1c0,0,0,0.1,0,0.1l2.9,4.8l2.5-1.2c0,0,0.1-0.1,0.1-0.1
		c0.1-0.1,0.2-0.1,0.3-0.1l10-4.7L83.9,241z"/>
	<path class="st5" d="M99.5,262.5l-2.7,1.3c-0.1,0-0.2,0.1-0.3,0.1c-0.3,0-0.5-0.1-0.7-0.4l-2.9-4.8l-9.6,5.6l25.9,14.9L99.5,262.5z
		"/>
	<g class="st19">
		<polygon class="st7" points="92.1,257.3 82.5,241.7 82.5,262.8 		"/>
		<polygon class="st7" points="101,261.8 110.5,278.4 110.5,257.3 		"/>
		<path class="st7" d="M83.9,241l9.8,16c0,0,0.1,0.1,0.1,0.1c0,0,0,0.1,0,0.1l2.9,4.8l2.5-1.2c0,0,0.1-0.1,0.1-0.1
			c0.1-0.1,0.2-0.1,0.3-0.1l10-4.7L83.9,241z"/>
		<path class="st7" d="M99.5,262.5l-2.7,1.3c-0.1,0-0.2,0.1-0.3,0.1c-0.3,0-0.5-0.1-0.7-0.4l-2.9-4.8l-9.6,5.6l25.9,14.9L99.5,262.5
			z"/>
	</g>
	<path class="st5" d="M125.2,80L85.4,57c-0.9-0.6-2.1-0.8-3.2-0.3l0,0c-0.1,0.1-0.2,0.1-0.3,0.2l-8.7,5.1h0.1
		c-1.1,0.6-1.8,2.1-1.8,4.1v44.2c0,3.7,2.3,8.1,5.1,9.7l39.8,23c1,0.8,2.4,0.8,3.5,0.1l-0.1,0.1l8.6-5l0,0c1.1-0.6,1.8-2,1.8-4.1
		V89.7C130.2,85.9,128,81.6,125.2,80z"/>
	<path class="st5" d="M128.8,84.2c-0.8-1.7-2.1-3.2-3.7-4.2L85.4,57c-0.9-0.6-2.1-0.8-3.2-0.3l0,0c-0.1,0.1-0.2,0.1-0.3,0.2
		l-8.7,5.1c1.1-0.6,2.4-0.5,3.4,0.2l39.8,23c1.6,1.1,2.9,2.6,3.8,4.4l0,0L128.8,84.2z"/>
	<path class="st5" d="M121.5,139c0,2-0.6,3.4-1.7,4l8.6-5l0,0c1.1-0.6,1.8-2,1.8-4.1V89.7c0-1.9-0.5-3.8-1.4-5.5l-8.7,5.3l0,0
		c0.8,1.7,1.3,3.5,1.3,5.3V139z"/>
	<path class="st16" d="M128.8,84.2c-0.8-1.7-2.1-3.2-3.7-4.2L85.4,57c-0.9-0.6-2.1-0.8-3.2-0.3l0,0c-0.1,0.1-0.2,0.1-0.3,0.2
		l-8.7,5.1c1.1-0.6,2.4-0.5,3.4,0.2l39.8,23c1.6,1.1,2.9,2.6,3.8,4.4l0,0L128.8,84.2z"/>
	<path class="st18" d="M121.5,139c0,2-0.6,3.4-1.7,4l8.6-5l0,0c1.1-0.6,1.8-2,1.8-4.1V89.7c0-1.9-0.5-3.8-1.4-5.5l-8.7,5.3l0,0
		c0.8,1.7,1.3,3.5,1.3,5.3V139z"/>
	<path class="st5" d="M108.4,120c-1.5-2.5-3.1-5-4.6-7.5c-0.5-1-1.4-1.7-2.4-2c-0.7-0.2-1.5-0.3-2.2-0.5c-0.3-0.1-0.5-0.3-0.7-0.6
		c-2.5-4.3-4.5-8.8-5.9-13.6c-0.1-0.2,0-0.4,0.1-0.6c0.5-0.5,1-0.9,1.5-1.3s0.7-1.4,0.4-2.7c-0.7-2.7-1.4-5.3-2.2-8
		c-0.3-1.5-1.4-2.8-2.9-3.3c-1.6-0.4-3.3-0.4-4.9,0.2c-0.6,0.2-0.9,0.8-0.9,1.7c0.3,1.8,0.4,3.6,0.8,5.5c2.5,13.4,8.4,25.7,17.8,37
		c0.5,0.8,1.3,1.2,2.2,1.3c1.6,0,3.1-0.6,4.2-1.6C109.6,123.1,109.5,121.7,108.4,120z"/>
	<path class="st5" d="M108.3,106.4c-0.2-2.9-1-5.7-2.3-8.2c-1-2-2.3-3.9-3.8-5.5c-0.4-0.4-0.7-0.6-0.9-0.2s0,0.8,0.4,1.2l0.4,0.4
		c2.8,3.2,4.5,7.1,5,11.3c0,0.3,0,0.6,0.1,0.9c0.1,0.3,0.3,0.7,0.6,0.9c0.2,0.2,0.4,0,0.6,0C108.3,106.8,108.3,106.6,108.3,106.4z"
		/>
	<path class="st5" d="M99.3,98.2c1.3,1.4,2,3.1,2.2,5c0.1,0.3,0.2,0.6,0.3,0.8c0.6,0.5,0.9,0.3,0.9-0.3c-0.2-2.4-1.2-4.6-2.8-6.4
		c-0.4-0.4-0.7-0.5-0.9-0.2C98.8,97.5,99,97.9,99.3,98.2z"/>
	<g class="st19">
		<path class="st7" d="M108.4,120c-1.5-2.5-3.1-5-4.6-7.5c-0.5-1-1.4-1.7-2.4-2c-0.7-0.2-1.5-0.3-2.2-0.5c-0.3-0.1-0.5-0.3-0.7-0.6
			c-2.5-4.3-4.5-8.8-5.9-13.6c-0.1-0.2,0-0.4,0.1-0.6c0.5-0.5,1-0.9,1.5-1.3s0.7-1.4,0.4-2.7c-0.7-2.7-1.4-5.3-2.2-8
			c-0.3-1.5-1.4-2.8-2.9-3.3c-1.6-0.4-3.3-0.4-4.9,0.2c-0.6,0.2-0.9,0.8-0.9,1.7c0.3,1.8,0.4,3.6,0.8,5.5c2.5,13.4,8.4,25.7,17.8,37
			c0.5,0.8,1.3,1.2,2.2,1.3c1.6,0,3.1-0.6,4.2-1.6C109.6,123.1,109.5,121.7,108.4,120z"/>
		<path class="st7" d="M108.3,106.4c-0.2-2.9-1-5.7-2.3-8.2c-1-2-2.3-3.9-3.8-5.5c-0.4-0.4-0.7-0.6-0.9-0.2s0,0.8,0.4,1.2l0.4,0.4
			c2.8,3.2,4.5,7.1,5,11.3c0,0.3,0,0.6,0.1,0.9c0.1,0.3,0.3,0.7,0.6,0.9c0.2,0.2,0.4,0,0.6,0C108.3,106.8,108.3,106.6,108.3,106.4z"
			/>
		<path class="st7" d="M99.3,98.2c1.3,1.4,2,3.1,2.2,5c0.1,0.3,0.2,0.6,0.3,0.8c0.6,0.5,0.9,0.3,0.9-0.3c-0.2-2.4-1.2-4.6-2.8-6.4
			c-0.4-0.4-0.7-0.5-0.9-0.2C98.8,97.5,99,97.9,99.3,98.2z"/>
	</g>
</g>
<g id="freepik--Clouds--inject-63" class="st2">
	<path class="st4" d="M329.2,53.5l9.4,5.3v-3.3c0-0.2,0-0.5,0-0.7s0-0.5,0-0.7V54l0,0c0.3-4.4,3.7-6.1,7.7-3.7
		c1.8,1.1,3.4,2.6,4.6,4.4c0.9-6,5.8-8.1,11.7-4.7c6.5,3.8,11.8,13,11.8,20.5v7.1c0,1.2,0.6,2.2,1.6,2.8l5.5,3.2
		c2.4,1.4,3.9,4,3.9,6.9c0,1.8-1.5,3.3-3.3,3.3c-0.6,0-1.1-0.2-1.6-0.4l-51.2-29.6c-2.8-1.6-4.5-4.6-4.5-7.8c0-1.6,1.3-2.9,2.9-2.9
		C328.3,53.1,328.8,53.2,329.2,53.5z"/>
	<path class="st4" d="M400.6,52.1l6.8,3.9v-2.4c0-0.2,0-0.3,0-0.5s0-0.3,0-0.5v-0.1l0,0c0.2-3.2,2.7-4.4,5.6-2.7
		c1.3,0.8,2.5,1.9,3.4,3.2c0.7-4.3,4.2-5.9,8.5-3.4c4.8,2.8,8.6,9.4,8.6,14.9v5.2c0,0.8,0.4,1.6,1.2,2l4,2.3c1.8,1,2.9,2.9,2.9,5
		c0,1.3-1.1,2.4-2.4,2.4c-0.4,0-0.8-0.1-1.1-0.3l-37.3-21.5c-2-1.2-3.2-3.3-3.2-5.6c0-1.2,0.9-2.1,2.1-2.1
		C400,51.8,400.3,51.9,400.6,52.1z"/>
</g>
</svg>
