<svg id="Layer_1" data-name="Layer 1" xmlns="http://www.w3.org/2000/svg" viewBox="0 0 300 100"><defs><style>.cls-1{fill:#e11d48;}.cls-2{fill:#fff;}</style></defs><rect class="cls-1" x="7" y="6" width="162" height="88" rx="11.04"/><path class="cls-2" d="M105.83,55.68A8.36,8.36,0,0,1,102.11,50c-.66-4.17,2.39-9.61,7.57-10,3.93-.28,7.91,0,11.86,0,1.19,0,2.39.09,3.58.08.61,0,.83.21.82.83,0,1.53,0,3.07,0,4.75h-3.34c.13,1,.26,1.8.33,2.63.36,4.68-2.69,7.85-6.91,8.5-1.39.22-2.81.19-4.2.4-.4.05-.73.54-1.09.82.36.31.68.83,1.07.88a26.86,26.86,0,0,0,5,.39c5.75-.33,9,5.24,6.72,10.55a6.6,6.6,0,0,1-3.28,3.38,16.47,16.47,0,0,1-13.49.71,9.61,9.61,0,0,1-3.4-2.28,6.36,6.36,0,0,1,.14-8.78c.28-.3.57-.59.94-1C102.8,59.52,103.31,57.43,105.83,55.68Zm3.8-7.38A3.13,3.13,0,0,0,113,51.43a3.06,3.06,0,1,0-3.38-3.13Zm3.31,20.53a15.45,15.45,0,0,0,2.78-.72,1.28,1.28,0,0,0,.07-2.42,6.23,6.23,0,0,0-5.87-.18c-1.29.61-1.3,1.86,0,2.47A17.74,17.74,0,0,0,112.94,68.83Z"/><path class="cls-2" d="M129.27,48.45a8.91,8.91,0,0,1,2.25-5.25,10.49,10.49,0,0,1,6.11-3.08,14.33,14.33,0,0,1,7.51.6A8.68,8.68,0,0,1,151.26,49c.07,5.78,0,11.57,0,17.35,0,.62-.2.82-.81.81-2.11,0-4.22,0-6.32,0-.9,0-1.19-.31-1.1-1.14a8.25,8.25,0,0,0,0-.89c-.75.42-1.38.81-2,1.14a9.36,9.36,0,0,1-10-.51c-2.47-1.64-3.19-4.17-3-6.91.31-4.14,2.74-5.85,6.25-6.56,1.81-.37,3.65-.61,5.47-.92A8.12,8.12,0,0,0,141,51.1a2.43,2.43,0,0,0,2-2.15,2.67,2.67,0,0,0-1.53-2.69,2.36,2.36,0,0,0-3.65,1.33,1.13,1.13,0,0,1-1.33.93c-2-.05-4,0-6,0C130,48.5,129.7,48.47,129.27,48.45Zm14,8.24c0-1.62,0-1.66-1.23-1.4a10.91,10.91,0,0,0-4.64,1.7,3,3,0,0,0-.82,3.5,2.31,2.31,0,0,0,2.83,1.26,4,4,0,0,0,1.73-.86A6.3,6.3,0,0,0,143.24,56.69Z"/><path class="cls-2" d="M97.45,61.22a2.49,2.49,0,0,0-1.56-.92,3.7,3.7,0,0,0-2.29.42,13.6,13.6,0,0,1-3.23,1.06,16.5,16.5,0,0,1-3.06.33q-3.91,0-5.89-2a7.3,7.3,0,0,1-1.84-4.19H96a3,3,0,0,0,2-.53,1.88,1.88,0,0,0,.67-1.58A17.73,17.73,0,0,0,97.73,48a11.87,11.87,0,0,0-2.62-4.41A11.67,11.67,0,0,0,91,40.85a14.08,14.08,0,0,0-5.35-1,14.47,14.47,0,0,0-7.27,1.81,12.81,12.81,0,0,0-5,5,15.06,15.06,0,0,0-1.79,7.44,14.76,14.76,0,0,0,1.87,7.55,12.68,12.68,0,0,0,5.35,5,18.37,18.37,0,0,0,8.34,1.75,20.7,20.7,0,0,0,4.6-.53A15.42,15.42,0,0,0,96,66.29a3.8,3.8,0,0,0,1.67-1.53,3.16,3.16,0,0,0,.42-1.87A3.09,3.09,0,0,0,97.45,61.22Zm-15-14.83a6.32,6.32,0,0,1,3.52-1,5.74,5.74,0,0,1,3.09.78A5,5,0,0,1,91,48.54a8.65,8.65,0,0,1,.64,3h-12a9.43,9.43,0,0,1,.64-2.46A6.15,6.15,0,0,1,82.45,46.39Z"/><rect class="cls-2" x="30.37" y="24.92" width="34.63" height="30" rx="7.65"/><path class="cls-1" d="M63,70.33c-1,0-2.09,0-3.13,0-2.59-.07-3.82-.94-4.37-2.37a3.35,3.35,0,0,1-.8,1.29,3.64,3.64,0,0,1-2.65,1H40V70l-2.5.2a7.24,7.24,0,0,1-.75,0H32.52c-1.29,0-2.57,0-3.86,0h0a3.83,3.83,0,0,1-2.86-1.07,3.76,3.76,0,0,1-1.06-2.78c0-1.61,0-3.21,0-4.81,0-3,0-6.14.06-9.24a15.47,15.47,0,0,1,6-12.21,14.4,14.4,0,0,1,8.87-3.08,15,15,0,0,1,8.13,2.45A13.94,13.94,0,0,1,56,36.87,16.89,16.89,0,0,1,57.9,37a13.5,13.5,0,0,1,8.4,4.55,16.18,16.18,0,0,1,4.37,11.29v13.4c0,.26,0,.52,0,.84l-.17,3.25H63ZM40,51"/><path class="cls-2" d="M67.61,67.31c-2.59,0-5.13,0-7.66,0-1.83-.05-1.82-.12-1.82-2V55.76c0-1.69.09-3.39,0-5.07a2.41,2.41,0,0,0-2.73-2.37,2.33,2.33,0,0,0-2.62,2.44c-.1,1.53,0,3.07,0,4.61,0,3.64,0,7.29,0,10.94,0,.48.05,1-.69.94-2.95,0-5.91,0-9,0V66.11q0-7.39,0-14.81a2.63,2.63,0,0,0-1.87-2.83,2.59,2.59,0,0,0-3.5,2.1,14.4,14.4,0,0,0-.16,2c0,4.5,0,9,0,13.49v1.15c-.32,0-.53.06-.74.06-2.71,0-5.41,0-8.11,0-.63,0-.91-.16-.9-.84,0-4.66-.12-9.31,0-14a12.49,12.49,0,0,1,4.81-9.93,11.53,11.53,0,0,1,13.8-.33,2,2,0,0,0,2.82,0A11.24,11.24,0,0,1,57.54,40a10.57,10.57,0,0,1,6.56,3.6,13.22,13.22,0,0,1,3.57,9.26v13.4C67.67,66.52,67.64,66.83,67.61,67.31Z"/><path class="cls-1" d="M210.15,36.36A3.14,3.14,0,0,0,209.3,34a3.28,3.28,0,0,0-2.4-.83H181.45a3.32,3.32,0,0,0-2.4.83,3.18,3.18,0,0,0-.85,2.37,3.19,3.19,0,0,0,.85,2.35,3.24,3.24,0,0,0,2.4.85h8.85v25.3a4.13,4.13,0,0,0,1,3,3.83,3.83,0,0,0,2.9,1,3.74,3.74,0,0,0,2.88-1,4.16,4.16,0,0,0,1-3V39.56h8.85a3.21,3.21,0,0,0,2.4-.85A3.15,3.15,0,0,0,210.15,36.36Z"/><path class="cls-1" d="M227.58,44.91a14.52,14.52,0,0,0-6.88-1.55,15.4,15.4,0,0,0-5.35.88,11.37,11.37,0,0,0-4.12,2.55,11,11,0,0,0-2.63,4,14.77,14.77,0,0,0-.9,5.3A14,14,0,0,0,209.3,63a10.86,10.86,0,0,0,4.53,4.45A14.51,14.51,0,0,0,220.7,69a15.85,15.85,0,0,0,5.38-.87,11,11,0,0,0,4.12-2.58,11.63,11.63,0,0,0,2.63-4.05,14.43,14.43,0,0,0,.92-5.35,13.55,13.55,0,0,0-1.62-6.8A11.21,11.21,0,0,0,227.58,44.91Zm-2.13,15.23a5.31,5.31,0,0,1-1.9,2.37,5,5,0,0,1-2.85.8,4.87,4.87,0,0,1-3.9-1.77c-1-1.19-1.5-3-1.5-5.43a10.27,10.27,0,0,1,.68-4,4.86,4.86,0,0,1,1.9-2.33A5.31,5.31,0,0,1,220.7,49a5,5,0,0,1,4,1.73q1.5,1.73,1.5,5.37A9.91,9.91,0,0,1,225.45,60.14Z"/><path class="cls-1" d="M259.68,44.14a3.06,3.06,0,0,0-2.08-.68,4,4,0,0,0-2.37.63,5.2,5.2,0,0,0-1.58,2.32l-5.28,13.05-5.12-13a5.46,5.46,0,0,0-1.52-2.37,3.51,3.51,0,0,0-2.18-.63,4.27,4.27,0,0,0-2.57.68,2.65,2.65,0,0,0-1.1,1.8,4.67,4.67,0,0,0,.32,2.42l8.17,18.72L241.7,73a4.48,4.48,0,0,0-.4,2.38,2.75,2.75,0,0,0,1,1.82,3.27,3.27,0,0,0,2.15.7,4.2,4.2,0,0,0,2.33-.6,5.2,5.2,0,0,0,1.67-2.3L260.2,48.31a4.11,4.11,0,0,0,.43-2.4A2.86,2.86,0,0,0,259.68,44.14Z"/><path class="cls-1" d="M282.5,56.39a9.17,9.17,0,0,0-4.95-2.18l-5.25-1a3.17,3.17,0,0,1-1.77-.77,2,2,0,0,1-.58-1.43,2.19,2.19,0,0,1,1-1.82,5.59,5.59,0,0,1,3.25-.73,10.9,10.9,0,0,1,2.6.33,15,15,0,0,1,2.95,1.07,2.79,2.79,0,0,0,1.78.2,2.24,2.24,0,0,0,1.27-.85,3,3,0,0,0,.63-1.45,2.55,2.55,0,0,0-.25-1.55,2.73,2.73,0,0,0-1.28-1.2,14.45,14.45,0,0,0-3.65-1.3,20.58,20.58,0,0,0-4.15-.4,15.22,15.22,0,0,0-5.62,1,8.85,8.85,0,0,0-3.88,2.8,6.91,6.91,0,0,0-1.4,4.32,6.09,6.09,0,0,0,1.68,4.43,8.49,8.49,0,0,0,4.77,2.27l5.25,1a4.27,4.27,0,0,1,1.9.7,1.77,1.77,0,0,1,.65,1.5,2.06,2.06,0,0,1-1,1.78,5.62,5.62,0,0,1-3.13.67,16.16,16.16,0,0,1-3.35-.35,20.58,20.58,0,0,1-3.75-1.2,2.58,2.58,0,0,0-1.72-.17,2.31,2.31,0,0,0-1.25.87,2.76,2.76,0,0,0-.53,1.45,2.93,2.93,0,0,0,.38,1.58,3.18,3.18,0,0,0,1.42,1.27,14.77,14.77,0,0,0,4.23,1.35,26.33,26.33,0,0,0,4.52.4,13.14,13.14,0,0,0,7.93-2.17,7,7,0,0,0,3-6A5.8,5.8,0,0,0,282.5,56.39Z"/></svg>